<?xml version="1.0" encoding="utf-8"?>
<!-- Generator: Adobe Illustrator 22.0.0, SVG Export Plug-In . SVG Version: 6.00 Build 0)  -->
<svg version="1.1" id="Layer_1" xmlns="http://www.w3.org/2000/svg" xmlns:xlink="http://www.w3.org/1999/xlink" x="0px" y="0px"
	 viewBox="0 0 500 500" style="enable-background:new 0 0 500 500;" xml:space="preserve">
<style type="text/css">
	.st0{fill:#FFFFFF;}
	.st1{stroke:#FFFFFF;stroke-miterlimit:10;}
</style>
<g>
	<g>
		<path class="st0" d="M214.8,194c-32.8,6.5-65.4,15.7-99.2,13.8c-9-0.5-9.4,11.9-2,14.7c32.8,12.5,58.8,37.7,91.3,50.9
			c3.8,1.5,8.2-1.7,9.2-5.2c1.2-4.3-1.5-7.7-5.2-9.2c-32.5-13.2-58.4-38.3-91.3-50.9c-0.7,4.9-1.3,9.8-2,14.7
			c35,2,69.1-7.6,103.2-14.3C228.3,206.5,224.3,192.1,214.8,194L214.8,194z"/>
	</g>
</g>
<g>
	<g>
		<path class="st0" d="M340,146.4c-13.3,1-27,2.3-38.9,8.7c-12.1,6.5-20.1,18.5-23.1,31.8c-2.7,12-2.3,26.1,5.9,36
			c7.9,9.5,22.7,12.1,34.3,8.6c13.9-4.2,20-18.5,17-32.3c-1.5-6.8-7.4-10-13.3-12.2c-7.1-2.6-14.9-4.4-22.2-1.6
			c-12.3,4.9-16.7,20.3-9,30.9c4,5.5,10.2,8.3,17,8.6c7,0.3,15.2-1.2,17.4-8.9c1.9-6.8,0.8-16.3-3.5-22c-4.5-6-12.6-8.8-19.3-4.5
			c-6.4,4.1-8.3,13.3-2.8,18.9c4.5,4.6,12,4.8,17.7,2.6c7-2.7,7.2-11.8,0-14.5c-7.4-2.8-22.5-5.2-26.2,4.4
			c-4.4,11.8,13.9,15.2,21.6,16.8c6.7,1.3,11.3-5,8.5-11c-3.8-8.1-19.9-17.3-25.8-6c-5.1,9.9,5.3,22.5,13.1,27.4
			c4.1,2.5,9.9,0.1,11-4.5c2.7-10.9-1.8-21.9-11.3-27.8c-4.3-2.6-9.6,0-11,4.5c-2.6,8.2,2.9,17.6,11.9,18.1c9.4,0.6,16.1-8,14.4-17
			c-1.6-8.7-9.5-14.5-18.3-11.4c-9.3,3.3-11.3,13.1-11.1,21.9c0.1,5.9,6.2,9.1,11.3,6.5c9.7-5,9.5-19.4,0.4-24.8
			c-6.2-3.7-11.8,2.4-11,8.5c1.8,13.6,22.9,28.5,32.5,12.8c1.4-2.2,1.4-5.3,0-7.6c-3.5-5.7-9.7-8.3-16.2-6.5c-9.3,2.6-5.3,17,4,14.5
			c-0.2-0.2-0.4-0.4-0.7-0.4c0-2.5,0-5,0-7.6c1.9-3.1,1.2,0,0.5-1.1c-0.3-0.5-2.1-1.1-2.6-1.6c-2-1.8-2.6-4-2.9-6.5
			c-3.7,2.8-7.3,5.6-11,8.5c-0.5-0.3-0.7-1-0.4-1.1c3.8,2.2,7.5,4.3,11.3,6.5c0-1.9-0.4-4.4,0.3-6.2c0,0.1,0.9-2,1-1.6
			c-1.3-4.3-2.7,0-1.4,0.1c0.5-0.9,1.2-0.9,2.1-0.2c0.2,0.9,0.3,1.1,0.5,0.4c-3.7,1.5-7.3,3-11,4.5c3.7,2.3,5.5,6.6,4.4,10.8
			c3.7-1.5,7.3-3,11-4.5c-1.8-1.1-3.4-2.5-4.6-4.2c-0.5-0.8-1.1-1.7-1.4-2.5c-0.2-0.5-0.4-1.1-0.5-1.6c-0.4-2-1.2-1.1-2.4,3
			c-1.3,0.3-2.5,0.7-3.8,1c2.5-0.1,3.8,1.4,4.8,3.6c2.8-3.7,5.6-7.3,8.5-11c-2.5-0.5-4.9-1-7.3-1.7c-1.2-0.4-2.4-0.7-3.6-1.1
			c-2.3-1.2-2.4-0.8-0.6,1.5c-0.3,1.9-0.5,3.9-0.8,5.8c-2.8,1.5-3,2.1-0.5,1.6c1.1,0,2.2,0,3.3,0.1c2.1,0.3,4.1,0.9,6,1.7
			c0-4.8,0-9.6,0-14.5c-0.7,0.3-2.5,0.4-3.1,0.8c-0.3,0-0.5,0-0.8,0c0.7,1.4,1.2,1.7,1.5,0.8c0,1.3,0,2.7,0,4c0.1-1.1-0.6-1-1.9,0.2
			c-0.1-0.3,0.1-0.2,0.5,0.3c0,1.4,1.2,3.6,1.2,5.2c0,1.1,0,2.3,0,3.4c-0.2,1.6,0.3,1.1,1.6-1.6c-0.1-0.1-5.1,0.3-5.8,0.1
			c-7.1-1.6-5.5-10.8,1.5-10.9c2.9,0,9.8,1.3,12,3.5c1.6,1.6,0.7,7.6-0.2,10c-2.4,6.4-12.1,6.3-17.6,4.9
			c-15.9-3.9-11.4-27.7-5.4-37.9c8.8-15,27.4-16.7,43.1-17.9C349.6,160.7,349.6,145.7,340,146.4L340,146.4z"/>
	</g>
</g>
<g>
	<g>
		<path class="st0" d="M308.6,203c3,3.4,3.1,5.8,0.2,7.2c-1,0.5-2.1,0.7-3.2,0.7c-2,0-4.2-0.9-5.5-2.3c-3.4-3.5-1.6-9.1,2.5-11.2
			c5.3-2.6,11.7,2.7,12.6,8c0.8,4.7-5.3,9-8.2,4c-2.2-3.7,2.3-7.9,5-4.1c1.2,1.6,2.5,8.2-1.2,8c-2.6-2.5-2.2-4.1,1.1-4.8
			c5.8,0.1,6.5,2.2,2.1,6.3c-3.8-0.4-4.2-5.3-3.3-7.9c0.6-1.6,2.6-5.9,4.6-6.1c1.1-0.7,1.8-0.3,2.2,1.3c0.8,1.5,1,3.1,0.5,4.8
			c-2.1,6.3-11,1.9-8.6-1.6c2-1.2,3.4-0.8,4.2,1.4c1.7,1.9,0.7,3.3-3.1,4.4c-2.1-1.8-1.4-7.6-0.9-9.9c0.2-1.2-1-2.4-2.2-1.7
			c-0.8,0.3-1.6,0.6-2.4,0.9c-3.5-2.2-3.9-3.1-1.1-2.7c1.8,0.3,2.7,0.5,2.7,2.8c0,2.4-5.4,1.3-1.5,0.4c1.9-0.5,2.8-0.6,4.1,1
			c2.7,3.4-2,8-5.7,8.3c-1.4,0.1-3-0.3-4.2-1c-1.3-0.5-2.1-1.4-2.4-2.7c-0.8-2.3-1-1.8-0.5,1.3c0.6,0.1,1.2,0.2,1.8,0.2
			c0.7-1.7,2-2.6,3.8-2.7c2-1.2,2.7-0.6,2.1,1.9c0.2,0.6,0.5,1.1,0.7,1.7c0.5-2.4,2-4.7,4.6-5.5c0.9-0.2,9.7,0.8,6.5,4.1
			c-1.2-0.3-2.4-0.6-3.5-0.9c2.8,3.7,2.2,4.5-1.9,2.6c-1.2-2.7,6.1-5.8,2.2,0.1c-0.7,0.2-1.4,0.4-2.1,0.5c2.2,1.2,2.8,2.5,2,4.9
			c0.1,1.4-0.4,2.1-1.6,2.1c-2.3,0.9-2.4-0.6-0.3-4.6c-0.3-0.6-0.7-1.2-1-1.8c-0.6,0.3-1.2,0.5-1.8,0.8c0.3,0.7,0.6,1.5,0.9,2.2
			c2.5-3.3,6.1-4.6,10.1-4.1c-0.4-0.8-0.9-1.5-1.3-2.3c-1.4,2.1-4.1,1.8-5.4,0.1c-1.2-1.5-3.3,0.6-2.1,2.1c2.7,3.4,7.8,2.9,10.2-0.7
			c0.7-1.1-0.2-2.1-1.3-2.3c-5.2-0.6-9.6,1.5-12.7,5.6c-0.6,0.9,0.1,1.9,0.9,2.2c2.5,1,4.8-0.3,5.4-2.9c0.2-0.8-0.2-1.7-1-1.8
			c-7.1-1.7-10.1,9.2-2.6,10.6c8.2,1.6,9.6-9.2,3.3-12.7c-0.7-0.4-1.6-0.2-2.1,0.5c-1.9,2.9,0.3,6.8,3.9,6.2
			c4.1-0.6,5.3-5.4,3.2-8.5c-5.8-8.3-14.5,4.6-6.8,8c7.9,3.5,10.5-12.2,1.2-9.7c-9.2,2.5,0,14.9,5.8,7.9c3.2-3.8,1-9.4-3.4-10.9
			c-5.5-2-11,2-12.1,7.4c-0.1,0.7,0.1,1.3,0.7,1.7c4.9,2.9,8.5-4.6,3.4-7.4c-4-2.2-14.5,3.1-9.9,7.7c0.4,0.4,1.3,0.6,1.8,0.2
			c3-2.1,5.9-6.5,2.3-9.6c-3.2-2.8-6.7,0.3-6.9,3.8c-0.2,4.7,4.3,8.1,8.7,8.5c5.2,0.5,9.9-3.1,11-8.2c2.3-10.9-14.9-8.3-13.8-1.1
			c0.6,3.6,5.3,4.7,8.1,2.8c3.7-2.6,2.8-8.5,0-11.4c-3-3.3-8-1.6-8.2,3c-0.2,5.3,6.2,6.2,9.8,4c-0.7-0.6-1.5-1.1-2.2-1.7
			c-0.9,4.6-0.9,13.5,4.7,15.5c4.9,1.7,7.6-4.2,6.2-8.1c-1.2-3.4-5.3-9.2-9.3-6.1c-3.4,2.7-2.3,8.5,1.1,10.7
			c4.2,2.7,10.1,0,11.4-4.6c1-3.4-0.6-10.2-5-10.6c-4.7-0.4-8.6,8.7-8.8,12.3c-0.2,4.4,3.7,9.1,8.4,8.5c4.4-0.6,5.9-5.8,3.7-9.3
			c-2.8-4.6-9.6-3.8-12.7,0c-2.5,3-1.6,7.4,2.6,7.9c4.8,0.6,7.4-3.7,6.8-8c-0.6-4.6-4.1-11.2-9.4-7.4c-3.5,2.5-4.3,8-1.4,11.2
			c2.9,3.2,8.5,2.9,11.3-0.3c3.9-4.6,0.7-11.4-3.2-14.9c-4.6-4.1-11.1-4.4-15.4,0.3c-3.8,4.3-3.6,10.6,0.9,14.2
			c4.1,3.3,10.6,3.3,14.1-0.9c3.4-4.1,1.6-10.8-4.3-10.6C306.6,200.1,306.6,203.1,308.6,203L308.6,203z"/>
	</g>
</g>
<g>
	<g>
		<path class="st0" d="M230,91.9c-6.6-0.7-13.6,1.1-20.1,2.5c-6.8,1.5-13.7,3.6-19.7,7.3c-11.7,7.3-17.3,19.7-22.2,32
			c-4.2,10.7-11.7,32.3,0.2,40.5c5.2,3.6,12.2,5.8,18.1,8.3c6.5,2.7,13.6,4.4,20.6,2.7c14.1-3.6,17.4-18.8,17.2-31.6
			c-0.1-6.3-1.9-12.8-6.3-17.5c-4.8-5.2-11.4-6.6-18.3-6.7c-7.1-0.1-14.6-0.4-21.6,0.2c-7.1,0.6-11.8,5.2-12.4,12.3
			c-1.2,12.2,6.6,24.9,16.8,31.1c5.6,3.4,12.8,5.1,18.8,1.5c5.1-3,8.2-9.1,8.1-14.9c-0.2-12.8-14.1-19.1-25-14
			c-10.9,5.1-13.4,20-5.5,28.9c7.9,9,23.2,7.2,29.1-3.2c6.1-10.7-2-25.2-14.2-25.8c-7-0.4-12.2,5-11.7,11.8
			c0.5,7.2,6.9,11,13.5,11.7c5.9,0.6,13.1-1,14.8-7.5c1.8-6.8-3.9-11.8-10-12.8c-5.7-1-14-2.8-18.5,2.2c-5,5.6-1.6,12.9,4.3,16
			c6.6,3.4,16.6,2.1,18.7-6.2c1.8-7.4-3.8-13.9-10.9-15.1c-6.9-1.2-16.9,1.3-18.8,9.1c-2.1,8.7,7.7,12.8,14.7,13
			c7.3,0.2,15.2-3.8,16.9-11.4c1.6-7.1-3-14.3-9.9-16.2c-15.5-4.2-20.7,18.8-6.5,24.1c9,3.4,12.9-11.1,4-14.5c1.9,0.7,2.8,1.8,2,3.3
			c-1.2,0.5-2.4,1-3.6,1.4c-0.6-0.4-0.7-0.8-0.4-1.4c0.3-0.8,0.3-1-0.1-0.6c-0.2,0.2-0.5,0.3-0.8,0.3c-0.5,0-1,0-1.5,0
			c-2.1-0.9-2.2-0.3-0.2,2c0,1.3,0,2.7,0,4c-0.7,2.1-2.1,1.4,0,1.8c4.3,0.8-1-4.5,1.9-5.8c1.3-0.3,2.5-0.7,3.8-1
			c-0.7,0.2-1.4,0.2-2.1,0c-1.2-0.7-0.9-0.1,0.9,1.6c0,1.3,0,2.7,0,4c-4.8,2.4-5.9,3.6-3.1,3.5c0.9,0.1,1.8,0.2,2.8,0.3
			s1.8,0.2,2.8,0.3c1.4,0.4,1.4,0.1,0.1-0.9c-0.3-1.3-0.7-2.5-1-3.8c0,0.3,0,0.7,0,1c0.3-1.3,0.7-2.5,1-3.8c2.4-1,3.1-1.5,2.1-1.6
			c-0.6-0.1-1.1-0.1-1.7,0c-0.4,0-0.7,0-1.1-0.1c0.6,2.6,0.9,3,1,1.2c-0.3,1.3-0.7,2.5-1,3.8c-1,0.5-2.1,0.9-3.1,1.4
			c0.1,0,0.3,0.1,0.4,0.1c0,0.2,0.7,0.3,0.8,0.5c0.2,0.6,1,1.5,0.9,2.2c-0.3,1.8-3,2.7-4.5,1.8c-3.6-2.1-0.1-8.6,3.1-6.2
			c0.8,0.6,1,2,0,2.6c-1.8,1.3-7.3-4.2-8.4-5.5c-2.3-2.8-4-6.2-4.6-9.8c-0.2-1.5,0.6-4.3-1.1-2.5c-1.6,1.8-0.6,0.7,0.7,1
			c1.4,0.3,3.2,0,4.6,0c4.9,0,9.8-0.2,14.7-0.1c4.3,0.1,7.5,0.6,9,5.1c1.3,3.9,0.5,8.5-0.2,12.5c-0.6,3.6-0.8,7.5-4.7,8.7
			c-8.7,2.6-17.2-5.8-25.1-7.7c-1-0.3-1.9-1.2-1.1,0c-0.3-0.5-0.1-2.9-0.1-3.7c0-2.4,0.3-4.8,0.8-7.1c1.1-5.5,3-10.8,5.1-15.9
			c3.8-9.2,8.1-18.2,17.4-22.9c4.2-2.1,8.8-3.3,13.4-4.3c5.3-1.2,10.7-2.5,16.1-2c4,0.4,7.5-3.7,7.5-7.5
			C237.5,95,234.1,92.3,230,91.9L230,91.9z"/>
	</g>
</g>
<g>
	<g>
		<path class="st0" d="M200.5,150.3c-1.7,0.8-3.3,0.4-4.7-1.2c-0.3,0.7-0.6,1.5-0.9,2.2c5.7-1.1,11.3,3.5,10,9.6
			c-1.1,5-5.8,7.2-10.5,5.9c-10.9-3.1-7.8-17,1-20.6c-0.6-0.2-1.1-0.5-1.7-0.7c0.6,1.3,2.1,5.5,2.8,5.9c1,0.5,2.3,0,3.4-0.1
			c0.4,0,0.9-0.1,1.3,0c2-0.2,1.4,0.9-1.7,3.5c0.3,0.7,0.6,1.5,0.9,2.2c0.7-0.5,1.5-1.1,2.2-1.6c-0.6-0.3-1.2-0.7-1.8-1
			c0.1,0.7,0.1,1.4,0.2,2c-0.7,2.1-1.1,2.3-1.4,0.6c-0.7-1-0.5-1.4,0.7-1.2c1.7-0.1,1.4-0.2-0.9-0.4c-1.9-0.1-1.9,2.9,0,3
			c2,0.1,7-2,4.9-4.9c-1.5-2.1-7.5-0.8-8.8,1.2c-1.9,3,1.7,6.2,4.5,6.5c4.3,0.5,4-4.7,3.6-7.6c-0.1-0.9-1.1-1.1-1.8-1
			c-2,0.3-3.2,1.2-4,3c-0.4,0.8-0.1,2,0.9,2.2c4.2,1,9.3-2.5,7.2-7.3c-1.5-3.6-9.1-2.6-11.6-0.7c-2.9,2.1-1.5,7.8,2.4,6
			c4.7-2.2,0.8-8.6-0.5-11.6c-0.2-0.5-1.1-0.9-1.7-0.7c-6.4,2.6-11.2,9-10.3,16.1c0.8,6.2,6.4,10.7,12.6,10.8
			c6.5,0.1,11.5-5.3,11.1-11.8c-0.5-7.1-7.3-11.3-14-10c-0.9,0.2-1.5,1.5-0.9,2.2c2,2.7,4.8,3.7,8.1,2.6
			C203.1,152.5,202.3,149.6,200.5,150.3L200.5,150.3z"/>
	</g>
</g>
<g>
	<g>
		<path class="st0" d="M166.5,290.4c11,12.7,25.9,22,42.2,26.1c18.8,4.7,39.2,3,58.5,3.1c18.3,0,38.2,1.7,55.2-6.4
			c14.8-7.1,24.6-22.3,22.1-38.8c-0.6-4-5.7-6.2-9.2-5.2c-4.3,1.2-5.8,5.2-5.2,9.2c1.9,13.2-12.5,21.9-23.3,24.4
			c-15.2,3.6-31.9,1.8-47.4,1.8c-15.9,0-32.7,1.3-48.2-2.9c-13.4-3.7-25-11.4-34-21.9C170.8,272.5,160.2,283.1,166.5,290.4
			L166.5,290.4z"/>
	</g>
</g>
<g>
	<g>
		<path class="st0" d="M306,271c19.7,3,39,8.3,57.3,16.2c3.7,1.6,8,1.1,10.3-2.7c1.9-3.2,1-8.7-2.7-10.3
			c-19.5-8.5-39.8-14.5-60.9-17.7c-4-0.6-8,1-9.2,5.2C299.8,265.3,302,270.4,306,271L306,271z"/>
	</g>
</g>
<g>
	<g>
		<path class="st0" d="M205,33.3c-14.5-1-31.2,6.3-36.7,20.6c-6,15.4,6.6,26.8,19.6,32.1c26.3,10.7,58.2,6.5,81-10.4
			c-3.4-3.4-6.8-6.8-10.3-10.3c-9.3,16.5,4.1,33.6,20.2,38c18.3,5,39.9,1.5,57.5-4.6c8.1-2.8,6.5-14-2-14.7
			c-9.1-0.7-17.4,5.2-21.3,13.2c-4.4,9.1-3.5,19.3,2.6,27.4c15.1,20.2,41.7,14.9,63.1,11.5c-1.9-4.6-3.9-9.1-5.8-13.7
			c-8.7,4.7-16,11.6-21.4,20c-5,7.9-9.6,19.1-7.6,28.6c2.4,11.4,13.6,13.5,23.3,14.8c12.7,1.7,25.5,2.3,38.3,1.8
			c-0.7-4.9-1.3-9.8-2-14.7c-19.6,7.9-39.1,26.8-31.4,50c6.8,20.7,29.9,23.9,48.7,24.1c-1.3-4.7-2.5-9.3-3.8-14
			c-9,4.9-18,9.7-27,14.6c-7.1,3.9-14.5,7.7-20.4,13.3c-13.1,12.3-13.7,31.6-4.9,46.6c8.6,14.7,25.1,25.6,40.7,31.7
			c15.2,6,34.7,3.8,43.4-11.6c-4.6-0.6-9.1-1.2-13.7-1.8c6.4,19.6,32.4,25,44.8,7.7c6.2-8.6,5.4-20,5.6-30
			c0.2-12.6,0.1-25.1-0.2-37.7c-0.5-21.3-0.7-43.4-6.5-64.1c-2.8-9.9-7.1-19.3-13-27.7c-2.9-4.1-5.4-8-6.7-12.9
			c-1.3-5.1-1.8-10.3-2.5-15.5c-5.4-39.2-14.2-85.5-54.1-104.2c-8.2-3.9-17.2-6.2-26.3-6.1c-3.1,0.1-10,2.3-12.6,0.6
			c-1.3-0.9-1.9-3-2.6-4.3c-1.4-2.4-3.1-4.7-5-6.8C343,9.9,321.1,5.7,302.4,3.2c-13.3-1.7-26.8-2.3-40.3-2.5
			c-12.1-0.1-24.6,0.4-36.3,3.7c-10.6,3-20.9,8.3-28.6,16.2c-6.9,7-14,20.6-0.9,25.6c9,3.4,12.9-11.1,4-14.5
			c6.3,2.4,1.8,6.4,4.7,2.6c1.2-1.5,2.5-2.9,3.9-4.2c2.9-2.8,6.2-5,9.7-6.8c7.4-4,15.9-6,24.2-6.9c19.4-2,40.2-0.9,59.5,1.8
			c14.8,2.1,34.2,5.4,44,18.1c2.2,2.9,3.5,6.3,5.9,9.1c3.2,3.7,7.6,5.4,12.4,5.7c7.8,0.4,14.9-1.6,22.7,0.5
			c34.8,9.1,46.9,47.3,52.1,78.6c1.5,9.3,2.7,18.7,4.1,28.1c1.4,9.2,4.6,16.4,9.9,23.9c10.1,14.4,13.8,31.4,15.3,48.6
			c1.9,22.1,2.1,44.5,1.9,66.7c0,5.7,0,11.5-0.3,17.2c-0.2,4.2-0.7,8.8-4,11.7c-5.7,5.1-14.4,2.5-16.7-4.6c-2-5.9-10.4-7.6-13.7-1.8
			c-6.2,11.1-21,7.6-30.3,2.9c-11.3-5.8-23.9-13.8-29.4-25.7c-5.5-11.9-1.4-22.7,9.2-29.7c12.4-8.1,26.1-14.5,39.2-21.5
			c6.7-3.6,3.5-13.9-3.8-14c-10.9-0.1-28.3,0-33.7-11.8c-6.8-14.7,8.3-27.9,20.5-32.8c3.5-1.4,5.9-4.2,5.4-8.2
			c-0.5-3.5-3.6-6.6-7.4-6.5c-9.6,0.4-19.2,0.2-28.8-0.7c-4.2-0.4-8.5-0.8-12.7-1.6c-2.1-0.4-4.9-0.6-5.6-2.8
			c-0.9-2.5,1.1-7.3,1.9-9.5c1.1-3.1,2.7-6,4.5-8.7c3.9-6,9.3-10.6,15.6-14c8-4.3,2.1-15-5.8-13.7c-14,2.2-31.7,7.2-44-2.7
			c-3.8-3.1-6.4-7.6-5.2-12.5c1.1-4.4,4.2-7.8,8.9-7.4c-0.7-4.9-1.3-9.8-2-14.7c-13.6,4.7-27.9,7-42.3,5.9
			c-7.5-0.6-24.6-6.4-18.5-17.2c3.4-6.1-3.9-15-10.3-10.3c-16.4,12.2-37.6,17.1-57.7,12.6c-6.3-1.4-21.1-4.9-21.9-13.2
			c-0.4-4.4,4.1-8.2,7.5-10.3c4.9-2.9,10.1-3.8,15.7-3.5C214.6,49,214.6,34,205,33.3L205,33.3z"/>
	</g>
</g>
<g>
	<g>
		<path class="st0" d="M143.2,246.8c-5.5,14.7-19,26.6-17.9,43.5c1.1,16.2,14.1,26.6,27.6,33.4c16.3,8.2,33.4,14.6,49.4,23.5
			c15.8,8.8,30.7,19.2,42.8,32.8c12.2,13.7,21.6,30.7,23.7,49.1c0.5,4,3.1,7.5,7.5,7.5c3.7,0,8-3.5,7.5-7.5
			c-4.1-34.8-26.4-63-54.4-82.7c-15.3-10.8-32.1-19.1-49.2-26.8c-7.7-3.4-15.5-6.5-22.9-10.5c-5.6-3.1-11.7-6.8-15-12.6
			c-4.1-7.2-1.5-14.7,2.2-21.4c4.5-8.1,9.7-15.5,13-24.3C161.1,241.7,146.6,237.8,143.2,246.8L143.2,246.8z"/>
	</g>
</g>
<g>
	<g>
		<path class="st0" d="M389,323c-13.8,14.8-17.9,34.2-21.9,53.4c-3.9,18.9-6.1,39,1.2,57.4c1.5,3.7,5,6.4,9.2,5.2
			c3.6-1,6.7-5.4,5.2-9.2c-6.3-16-4.6-32.9-1.2-49.4c3.4-16.3,6.3-34.1,18-46.8C406.2,326.6,395.6,315.9,389,323L389,323z"/>
	</g>
</g>
<g>
	<g>
		<path class="st0" d="M206.3,406.6c13,15.3,29.5,26.9,46.6,37.2c17.5,10.7,35.2,21,52.6,31.9c17.4,11,36.5,20.9,57.6,20.6
			c19.5-0.2,36.3-9.5,46.3-26.2c9.8-16.4,12.4-37,25-51.8c6.3-7.3-4.3-17.9-10.6-10.6c-11,12.8-15.4,28.6-21.9,43.8
			c-6.4,15.1-16.1,27.4-33.4,29.5c-19.1,2.3-36.8-6.7-52.5-16.4c-16.6-10.3-33.2-20.5-50-30.4c-18-10.7-35.5-22.2-49.1-38.2
			C210.7,388.6,200.1,399.2,206.3,406.6L206.3,406.6z"/>
	</g>
</g>
<g>
	<g>
		<path class="st0" d="M46.2,430.5c48.6-21,100.9-33,153.7-35.6c9.6-0.5,9.7-15.5,0-15c-55.7,2.7-110.2,15.5-161.3,37.7
			c-3.7,1.6-4.5,7-2.7,10.3C38.2,431.7,42.5,432.1,46.2,430.5L46.2,430.5z"/>
	</g>
</g>
<g>
	<g>
		<path class="st0" d="M438.1,414c17.1-2,34.3-1.2,51,2.9c9.4,2.3,13.4-12.2,4-14.5c-18-4.3-36.6-5.6-55-3.4c-4,0.5-7.5,3.1-7.5,7.5
			C430.6,410.2,434,414.5,438.1,414L438.1,414z"/>
	</g>
</g>
<ellipse class="st1" cx="192" cy="157" rx="22.5" ry="19.5"/>
<ellipse class="st1" cx="307.5" cy="206.5" rx="22" ry="19"/>
<g>
	<g>
		<path class="st0" d="M284.7,194.6c7.4-2.5,15.1-4.1,22.9-4.8c6.5-0.5,18.2-2,22.6,3.8c3.7,4.8,2.4,13.7,0.9,19.1
			c-1.1,4.1-3.5,7.8-7.9,8.8c-3.1,0.7-6.2,0.3-9.2,1.3c-1.8,0.6-1,3.5,0.8,2.9c4-1.3,8.5-0.4,12.3-2.4c2.6-1.4,4.6-4,5.8-6.7
			c2.8-6.2,3.9-16,1.2-22.3c-3.2-7.6-12-7.7-19.1-7.7c-10.6,0-21,1.8-31.1,5.1C282.1,192.4,282.8,195.3,284.7,194.6L284.7,194.6z"/>
	</g>
</g>
<g>
	<g>
		<path class="st0" d="M200,139.8c4.5,1,9.2,1.2,11.6,5.7c1.8,3.3,1.7,8.5,1.5,12c-0.2,3.9-1,8.1-2.7,11.6
			c-2.4,4.8-8.3,6.6-13.4,7.1c0.4,0.9,0.7,1.7,1.1,2.6c2.1-2.2,6.5-2.4,9.1-4.5c2.7-2.2,4.4-5.1,5.5-8.4c0.6-1.8-2.3-2.6-2.9-0.8
			c-1.3,4.2-4.2,7.6-8.4,9.1c-2.1,0.8-3.8,0.8-5.3,2.4c-0.8,0.9-0.3,2.7,1.1,2.6c4.7-0.5,11.5-1.8,14.6-5.7c2.9-3.7,4-9.7,4.4-14.3
			c0.5-5,0.3-11.7-2.2-16.2c-2.5-4.7-8.4-5-13-6.1C198.9,136.5,198.1,139.4,200,139.8L200,139.8z"/>
	</g>
</g>
<g>
	<g>
		<path class="st0" d="M213.4,145c-1.2-0.9-1.7-2.5-2.6-3.6c-1-1.2-2.5-2-4-2.4c-1.9-0.4-2.7,2.5-0.8,2.9c3.1,0.7,3.6,4,5.9,5.7
			C213.4,148.7,214.9,146.1,213.4,145L213.4,145z"/>
	</g>
</g>
<g>
	<g>
		<path class="st0" d="M182.7,136.9c-2.3,0.1-5-0.1-7.2,0.7c-2.2,0.8-2.6,2.5-2.9,4.6c-0.3,1.5-0.4,3.8,1.9,3.5
			c2.1-0.2,2.6-4.5,4.7-3.7c1.8,0.6,2.6-2.2,0.8-2.9c-1.3-0.5-2.7-0.2-3.9,0.7c-0.5,0.4-0.9,0.9-1.3,1.4c-0.2,0.4-0.5,0.7-0.7,1.1
			c-0.1,0.1-0.2,0.3-0.3,0.4c-0.3,0.3-0.2,0.3,0.3,0c0.4,0.1,0.7,0.3,1.1,0.4c-0.1-0.1-0.2-0.1-0.2-0.2c0.1,0.4,0.3,0.7,0.4,1.1
			c0-0.7,0.2-1.5,0.3-2.1c0.2-1.1,0.5-1.4,1.6-1.6c1.8-0.3,3.6-0.2,5.4-0.3C184.6,139.7,184.6,136.7,182.7,136.9L182.7,136.9z"/>
	</g>
</g>
<g>
	<g>
		<path class="st0" d="M324.7,221.6c3.5-0.9,4.4-5.1,5.3-8.1c1.4-4.9,2.1-10.5,1.2-15.5c-0.5-2.9-1.8-5-4.6-6.2
			c-0.8-0.3-5.4-1.8-5.9-1.3c-0.7,0.6,0.2,0.3,1,0.9c1.8,1.2,5.7-1.5,4.7,4.3c0.6-0.3,1.2-0.7,1.8-1c-0.4-0.3-0.8-0.5-1.2-0.8
			c-1.1-1.3-3.4,0.5-2.4,1.8c1,1.3,1.8,2.5,2.5,4c0.9,1.7,3.4,0.2,2.6-1.5c-0.7-1.5-1.5-2.7-2.5-4c-0.8,0.6-1.6,1.2-2.4,1.8
			c1,1.1,1.1,1.2,2.5,1.5c0.7,0.2,1.7-0.2,1.8-1c0.8-4.2-0.2-6.1-4.1-7.5c-2-0.7-7.5-3.8-8.6,0c-1.2,3.8,5,4.4,7.2,5.1
			c5.5,1.7,5,6.7,4.7,11.3c-0.2,2.4-1.2,12.5-4.5,13.4C322.1,219.2,322.9,222.1,324.7,221.6L324.7,221.6z"/>
	</g>
</g>
<g>
	<g>
		<path class="st0" d="M328.6,194.5c2.7,3.7,2.1,7.8,1.7,12.1c-0.3,3.9-0.5,9.3-4.4,11.6c-1.7,1-0.1,3.6,1.5,2.6
			c3.5-2.1,5.3-6.5,5.6-10.5c0.5-5.8,1.8-12.3-1.9-17.3C330.1,191.5,327.5,193,328.6,194.5L328.6,194.5z"/>
	</g>
</g>
<g>
	<g>
		<path class="st0" d="M291.1,192c-2.2,0.3-5.2,0.2-6.5,2.4c-0.5,0.9-0.6,1.9-0.7,2.8c-0.2,1.5-0.6,3.2-0.5,4.7
			c0.1,0.9,0.7,1.8,1.7,1.8c1,0,1.6-0.8,2.1-1.6c0.6-1.1,1-2.2,1.4-3.4c0.5-1.7,1.3-2.1,3-2.1c1.9,0,1.9-3,0-3
			c-1.8,0-3.6,0.3-4.8,1.8c-0.6,0.7-0.8,1.6-1.1,2.5c-0.2,0.7-0.6,2.7-1.4,3c0.5,0,1,0,1.5,0c-0.1,0-0.2-0.1-0.2-0.1
			c0.2,0.4,0.5,0.9,0.7,1.3c-0.1-0.9,0.2-2,0.3-2.9c0.1-0.9,0.1-2,0.4-2.8c0.5-1.5,3.5-1.3,4.8-1.5C293.8,194.6,293,191.7,291.1,192
			L291.1,192z"/>
	</g>
</g>
<g>
	<g>
		<path class="st0" d="M173.3,147.1c-0.2,0.7-0.5,1.4-0.7,2.1c-0.4,1.3,1.1,2.3,2.2,1.7c1.5-0.9,4.1-3,3.1-0.2
			c-0.5,1.4,1.1,2.2,2.2,1.7c0.8-0.4,3.8-2.2,4.7-1.9c0.4,0.1,0.7,0.3,1.1,0.4c-2.3,2.2-2.5,3.1-0.4,2.6c1.9,0.5,4.1-1.1,6-0.4
			c1.5-0.3,2.1,0.3,1.7,1.9c0.8,2,0.3,2.3-1.3,1c-0.2,0.7-0.4,1.4-0.5,2.1c0.8-0.5,3.7-2.2,4.7-1.6c2,1.2-2.8,2.2-3.2,2.2
			c-1-0.1-2.1-0.3-3.1-0.4c0.3-1.4,0.5-2.7,0.8-4.1c0.4,0.6-3.1,1.2-1.8-0.4c0.7-0.9,3.2-1.3,4.3-1.6c2.2-0.5,3.6-1.5,3.9,1.1
			c0.3,2.7-1.3,2.7-3.2,1.4c-2-0.8-2-1.4,0-1.7c0.8-0.4,1.6-0.6,2.4-0.8c1.7,0,4,2.7,3.7,4.4c-0.2,1.3-1.9,3.2-2.9,4.1
			c-1.1,1.1-3,2.5-4.6,2.7c-1.6-0.2-3.2-0.4-4.8-0.6c-0.4-2.2-0.8-4.5-1.2-6.7c0.4-0.9,7-3.4,8.1-2.6c0.3,1.6,0.6,3.1,0.9,4.7
			c-0.8,0.3-1.5,0.7-2.3,1c-1.4,0.5-2.9,0.8-4.5,1.1c-2.8,0.4-5.8,0.5-8.5-0.6c-4.6-1.9-5.2-6.7-1.1-9.5c2.8-1.9,6-3.3,9.1-1.8
			c2.3,0.3,2.9,1.5,2.1,3.6c-0.5,0.8-0.9,1.5-1.4,2.3c-1.2-1-2.5-2.1-3.7-3.1c0.5-0.6,0.9-1.2,1.4-1.7c1-0.9,2.7-2,4-2.2
			c1.3-0.2,4,0.1,4.7,1.6c1.9,3.7-3.4,7.4-6.4,7.2c-0.8-0.2-1.6-0.3-2.3-0.5c-2.9-0.4-3.7-1.6-2.3-3.5c0.9-2.4,1.5-2.1,3.9-2.4
			c3.4-0.4,8.8-0.7,10.9,2.8c0.1-0.6,0.2-1.2,0.2-1.8c-3.6,3.7-14.4,4.1-18.5,0.9c0.2,0.7,0.4,1.4,0.5,2.1c1.1-1.8,6.8-2.6,8.5-2.5
			c1.5-0.6,2.6-0.1,3.2,1.5c2.3,2.2,1.7,2.4-1.9,0.7c0.1,0.2,6.1-1.4,7.3-1.1c4.3,1.2-1.5,2.7-3.3,2.7c-2.9,0.4-4-1-3.3-4.3
			c1-0.4,1.9-0.8,2.9-1.1c4.9-1.6,6,0.4,3.3,6.2c-1.4,0.3-2.8,0.4-4.3,0.3c-1.9-0.1-3.8-0.4-5.5-0.9c-1.3-0.4-2.5-0.9-3.7-1.7
			c-1.4-2.5-1-3.7,1.1-3.4c1.8-0.8,6.2-0.4,7.8,0.5c1.8,0,2.6,1,2.3,3.1c1.4,2,1.1,3-0.9,3c-1.1,0.5-7.5,1.2-8.5,0.1
			c-0.2-1.5-0.5-2.9-0.7-4.4c1.7-0.5,3.4-0.8,5.2-0.6c3.3,0.1,4.6,2.3,4,6.6c-1.1,0.6-2.1,1.2-3.2,1.8c-1,0.3-2.1,0.5-3.2,0.7
			c-4,1.4-5.5-0.7-4.5-6.1c1.5,2.7,0.8,3.6-1.9,2.7c-2.3,0.5-4-0.4-5-2.7c2.1,0.1,2.6,1.3,1.4,3.6c-3.3-1.8-4.8-1.3-4.4,1.3
			c0.8-0.4,1.5-0.9,2.3-1.3c-0.5-0.8-1.1-1.7-1.6-2.5c0-1.9-3-1.9-3,0c0,2.5,0.9,4,3.1,5.1c1.1,0.5,2.2-0.1,2.3-1.3
			c0.2-2.4,0.2-6.6-2.5-7.9c-2.6-1.2-5.1,1-5.3,3.6c-0.3,5.2,8.3,10.1,11.6,5.1c3.4-5.2-1.6-15.6-7.3-8.8c-4.1,4.9,1.6,12.7,7.3,9
			c4.9-3.3,1.5-11.4-4.3-9.5c-7.3,2.4,1.9,10.4,6.4,10c4.6-0.4,9.8-8.3,3.2-9.5c-6.2-1.2-11.5,6.3-6.1,10.8c4.9,4,16.7,1.5,18.8-4.8
			c2.7-8.3-9.1-10.1-14.4-7.9c-2.2,0.9-4,2.6-3.6,5.2c0.6,3.9,5,5,8.3,5.2c4.6,0.3,17.5-2.4,11.2-9.6c-3.3-3.7-18.4-6.7-20.7-0.5
			c-2.6,7.2,13.5,9.4,17.5,8.9c6-0.8,11-8.6,3.9-12c-4.5-2.2-17.4,1.4-12.8,8.1c3.2,4.7,18.9,3.2,16.7-3.6c-1.2-3.5-8-2.1-10.4-1.7
			c-2.7,0.4-8.7,0.9-8.1,4.9c0.4,3,4.5,5.7,7.3,5c3-0.7,4.5-4.3,4.1-7.2c-0.4-3.5-2.7-4.4-5.9-4.4c-4,0-10.6,0.5-12.9,4.1
			c-0.5,0.7-0.1,1.6,0.5,2.1c3.5,2.6,8.6,2.3,12.7,2c3.6-0.2,6.8-0.8,9.4-3.5c0.5-0.5,0.6-1.3,0.2-1.8c-3.4-5.6-15.2-6.2-20.2-2.4
			c-5.6,4.2,1.7,9.6,6.1,10.3c6,1,12.1-3.9,10.8-10.3c-1.3-6.6-8.7-5.2-12.9-2.1c-3.8,2.8-6.3,11.9,1,11.9c5.9,0,9.1-8.1,5.5-12.4
			c-4-4.8-14.1,0.2-17.3,3.9c-4.6,5.3,0.2,11.7,6,13.1c5.4,1.3,17.3,0.6,19.7-5.8c3-8-9-6.9-13-5.1c-5.7,2.5-6.7,9.9-1.1,13.3
			c6.9,4.3,14.4-2.4,17-8.5c0.9-2.2,1.5-4.9-0.3-6.9c-2.1-2.3-5.7-1.2-8.3-0.4c-2.6,0.8-6.4,2-6.7,5.2c-0.2,2.6,2.2,4.3,4.5,4.5
			c4.1,0.4,12.4-3.9,8.6-9c-3-4-15.1-0.6-16.6,3.8c-2,5.9,9,4.8,10.9,0.9c3-6-8.2-3.9-10.2-0.3c-4.1,7.4,11,8.4,14.8,5.2
			c1.7-1.4,2.1-3.5,0.4-5.1c-2.8-2.6-7.7-0.9-10.4,0.8c-0.7,0.5-0.9,1.3-0.5,2.1c2.8,5.9,13.5-0.3,7.4-5.7c-3-2.7-10.1-2.5-13.3-0.2
			c-2.1,1.5-2.7,4-0.5,5.6c0.4,0.3,1.1,0.2,1.5,0c2.5-1.1,5.9-5.8,4.7-8.7c-1.6-3.9-8.1,0.3-10.5,1.3c0.7,0.6,1.5,1.1,2.2,1.7
			c0.7-1.9,1.5-3.2,0.2-5c-0.3-0.4-0.7-0.8-1.3-0.7c-2.4,0.3-4.3,1.3-6.4,2.5c0.7,0.6,1.5,1.1,2.2,1.7c0.2-0.7,0.5-1.4,0.7-2.1
			C176.8,146.1,173.9,145.3,173.3,147.1L173.3,147.1z"/>
	</g>
</g>
<g>
	<g>
		<path class="st0" d="M183.9,167.2c1.3,0.4,2.7,0.8,4,1.3c1.8,0.6,2.6-2.3,0.8-2.9c-1.3-0.4-2.7-0.8-4-1.3
			C182.8,163.7,182,166.6,183.9,167.2L183.9,167.2z"/>
	</g>
</g>
<g>
	<g>
		<path class="st0" d="M192.6,167.6c-0.6,1.9,0.3,4,2.5,4.3c3,0.4,7.2-4.4,9.1-6.2c-0.7-0.7-1.4-1.4-2.1-2.1c-1.4,1.3-2.8,2.7-4.2,4
			c0.8,0.6,1.6,1.2,2.4,1.8c1.6-2.3,3.5-3.8,6.1-4.8c-0.6-0.6-1.2-1.2-1.8-1.8c-0.5,1.4-1.3,2.5-2.5,3.4c-1.2,1.1,0.4,3.4,1.8,2.4
			c1.6-1.2,3.2-2.3,4.9-3.5c-0.7-0.7-1.4-1.4-2.1-2.1c-0.6,1.1-1.1,2.1-1.7,3.2c-0.5,1,0.1,2.2,1.3,2.3c1.7,0,2.8-0.3,4.1-1.2
			c-0.6-0.8-1.2-1.6-1.8-2.4c-0.6,0.6-1.3,1.1-1.9,1.7c0.8,0.4,1.5,0.9,2.3,1.3c0.6-1.1,1.2-2.2,1.9-3.4c-0.7-0.2-1.4-0.4-2.1-0.5
			c0.2,0.6,0.4,1.2,0.7,1.8c0.3,1.5,2.5,1.4,2.9,0c0.6-2.1,0.6-4,0.1-6.2c-0.2-1-1.8-1.5-2.5-0.7c-0.4,0.5-0.9,1-1.3,1.5
			c0.8,0.5,1.7,1,2.5,1.5c0.5-2,1-3.8,1.9-5.7c0.7-1.7-1.6-3.3-2.6-1.5c-0.6,1.2-1.3,2.3-1.9,3.5c0.9,0,1.7,0,2.6,0
			c-0.1-1.2-0.3-2.4-0.4-3.6c0.3-1.6-1.8-2.7-2.7-1.2c-1.3,2-2.5,3.9-3.8,5.9c0.9,0.3,1.9,0.5,2.8,0.8c0,0,0-0.1-0.1-0.1
			c-0.7-0.7-1.4-1.4-2.1-2.1c-1.3,2.1-2.5,4.3-3.8,6.4c-1,1.5,1.1,2.8,2.4,1.8c1.8-1.5,3.5-2.9,5.3-4.4c-0.8-0.5-1.7-1-2.5-1.5
			c-0.7,0.9-1.5,1.9-2.2,2.8c0.9,0.4,1.7,0.7,2.6,1.1c-0.1-0.9-0.2-1.8-0.3-2.7c-0.1-1.1-1.2-1.9-2.3-1.3c-2.1,1.2-4.2,2.3-6.4,3.3
			c0.5,0.9,1,1.7,1.5,2.6c1.1-1,2.4-1.6,4-1.6c-0.4-0.8-0.9-1.5-1.3-2.3c-0.7,0.8-1.4,1.6-2.1,2.4c0.6,0.8,1.2,1.6,1.8,2.4
			c3.4-2.7,6.8-5.4,10.1-8.1c1.3-1.1-0.4-3.3-1.8-2.4c-1.8,1.3-3.6,2.5-5.4,3.8c0.7,0.3,1.5,0.6,2.2,0.9c0-1.2,0-2.4,0-3.5
			c0.4-1.3-1.1-2.3-2.2-1.7c-2.1,1.1-4.1,2.4-6,3.9c-1.5,1.1-0.2,3.6,1.5,2.6c2.6-1.5,5.1-2.9,7.7-4.4c-0.6-0.8-1.2-1.6-1.8-2.4
			c-0.5,0.5-1.1,0.9-1.6,1.4c0.7,0.7,1.4,1.4,2.1,2.1c1-1.3,1.6-2.3,1.9-3.9c0.3-1.2-0.7-2.1-1.8-1.8c-1,0.2-1.9,0.4-2.9,0.6
			c0.5,0.8,1,1.7,1.5,2.5c1.8-1.5,3.3-2.4,5.4-3.3c-0.7-0.7-1.4-1.4-2.1-2.1c-0.4,0.6-0.7,1.3-1.1,1.9c-0.6,1.1,0.2,2.1,1.3,2.3
			c3,0.4,5.1,1.4,3.2,4.9c0.9,0,1.7,0,2.6,0c-1.1-2.4-0.4-5.4-0.9-7.9c-0.4-1.9-1.2-3.8-2.2-5.5c-2.2-3.6-5.6-6.4-9.4-8.2
			c-6.9-3.2-19.1-5.4-24.9,0.9c-3.1,3.4-5,8.6-6.1,13c-0.9,3.6-2.3,8.8-0.3,12.2c4.4,7.7,17.2,9.9,25.1,8.9c1.9-0.2,1.9-3.2,0-3
			c-6.8,0.8-16.6-0.5-21.3-6.1c-3-3.6-1.1-9.8,0.2-13.7c1.6-4.9,3.9-10.6,9.4-11.8c7.1-1.6,16.6,0.8,21.9,5.8c2.7,2.5,4.6,5.8,5,9.5
			c0.3,2.8-0.1,4.9,1.1,7.5c0.5,1,2.1,0.9,2.6,0c1.1-1.9,2.6-5.5,1.1-7.6c-1.4-1.9-4.9-1.5-6.9-1.8c0.4,0.8,0.9,1.5,1.3,2.3
			c0.4-0.6,0.7-1.3,1.1-1.9c0.8-1.4-0.8-2.6-2.1-2.1c-2.3,1-4.2,2.2-6,3.8c-1.2,1,0.1,2.8,1.5,2.5c1-0.2,1.9-0.4,2.9-0.6
			c-0.6-0.6-1.2-1.2-1.8-1.8c-0.4,0.9-0.8,1.7-1.2,2.6c-1.2,1.5,0.6,3.4,2.1,2.1c0.5-0.5,1.1-0.9,1.6-1.4c1.3-1.1-0.4-3.2-1.8-2.4
			c-2.6,1.5-5.1,2.9-7.7,4.4c0.5,0.9,1,1.7,1.5,2.6c1.9-1.5,3.9-2.7,6-3.9c-0.7-0.6-1.5-1.1-2.2-1.7c-0.5,1.9-0.5,3.2,0,5.1
			c0.2,0.9,1.4,1.5,2.2,0.9c1.8-1.3,3.6-2.5,5.4-3.8c-0.6-0.8-1.2-1.6-1.8-2.4c-3.4,2.7-6.8,5.4-10.1,8.1c-1.3,1.1,0.4,3.2,1.8,2.4
			c1.5-1,2.4-1.9,3.2-3.5c0.4-0.9-0.1-2.4-1.3-2.3c-2.2,0.2-3.7,0.7-5.5,2.1c-1.5,1.2-0.3,3.4,1.5,2.6c2.2-1,4.3-2.1,6.4-3.3
			c-0.8-0.4-1.5-0.9-2.3-1.3c0.1,0.9,0.2,1.8,0.3,2.7c0.1,1.4,1.5,1.9,2.6,1.1c1.5-1.2,2.3-2.4,3-4.1c0.6-1.5-1.5-2.3-2.5-1.5
			c-1.8,1.5-3.5,2.9-5.3,4.4c0.8,0.6,1.6,1.2,2.4,1.8c1.3-2.1,2.6-4.2,3.8-6.4c0.7-1.2-0.8-2.9-2.1-2.1c-1.2,0.8-1.5,1.1-1.4,2.7
			c0.1,1.5,2,2,2.8,0.8c1.3-2,2.5-3.9,3.8-5.9c-0.9-0.4-1.8-0.8-2.7-1.2c-0.4,2.3-0.2,3.7,0.7,5.9c0.4,1.1,2.1,0.9,2.6,0
			c0.6-1.2,1.3-2.3,1.9-3.5c-0.9-0.5-1.7-1-2.6-1.5c-0.9,2.1-1.6,4.2-2.2,6.5c-0.3,1.4,1.5,2.7,2.5,1.5c0.4-0.5,0.9-1,1.3-1.5
			c-0.8-0.2-1.7-0.4-2.5-0.7c0.5,1.5,0.5,3-0.1,4.6c1,0,1.9,0,2.9,0c-0.3-1.3-0.3-1.4-1-2.5c-0.4-0.7-1.3-0.9-2.1-0.5
			c-2.4,1.2-3.6,3.2-3.4,5.9c0.1,1.1,1.2,2,2.3,1.3c1.5-0.9,1.4-0.8,2.5-2.2c1-1.2-0.3-3.4-1.8-2.4c-0.9,0.3-1.8,0.5-2.6,0.8
			c0.4,0.8,0.9,1.5,1.3,2.3c0.6-1.1,1.1-2.1,1.7-3.2c0.7-1.2-0.8-3-2.1-2.1c-1.6,1.2-3.2,2.3-4.9,3.5c0.6,0.8,1.2,1.6,1.8,2.4
			c1.6-1.4,2.5-2.8,3.3-4.7c0.4-1-0.8-2.3-1.8-1.8c-3.3,1.4-5.8,3.3-7.9,6.2c-1,1.4,1.2,3,2.4,1.8c1.4-1.3,2.8-2.7,4.2-4
			c1.4-1.3-0.7-3.5-2.1-2.1c-1.1,1.1-2.3,2.2-3.6,3.1c0.1-0.1-3.2,2.3-3,1.7C196,166.5,193.2,165.7,192.6,167.6L192.6,167.6z"/>
	</g>
</g>
<g>
	<g>
		<path class="st0" d="M201.9,174c2.4-0.4,3.7-1.4,4.7-3.6c0.5-1.1-0.1-2.2-1.3-2.3c-3.7-0.3-7.3,1-11,0.8c-4-0.2-7.8-2.1-10.5-5
			c-2.6-2.8-2.7-5.8-4.3-8.9c-1-1.9-3.8-2.5-4.6-4.4c-0.6-1.4-3.1-1.4-2.9,0.4c0.1,1.2,0.1,1.4,0.5,2.5c0.7,1.8,3.6,1,2.9-0.8
			c-0.1-0.6-0.3-1.2-0.4-1.8c-1,0.1-2,0.3-2.9,0.4c1.1,2.7,4,3.4,5,6.1c1.4,3.6,2.5,6.7,5.5,9.4c2.6,2.3,5.8,4,9.2,4.6
			c4.5,0.8,8.9-0.9,13.4-0.6c-0.4-0.8-0.9-1.5-1.3-2.3c-1,0.8-1.9,1.5-2.9,2.3C199.2,171.4,200,174.3,201.9,174L201.9,174z"/>
	</g>
</g>
<g>
	<g>
		<path class="st0" d="M172,153.3C172.1,153.4,172,153.1,172,153.3c-0.4,1.8,2.4,2.6,2.9,0.7c0.1-0.3,0.4-0.6,0-0.6
			c-0.2-0.2-0.3-0.1-0.2,0.2c0,0.1,0,0.2,0,0.3c0.1,0.4,0.2,0.7,0.4,1c0.8,1.1,2.2,1.3,3.2,0.4c1.4-1.3-0.7-3.5-2.1-2.1
			c0,0-0.1,0.1-0.1,0.1c0.2-0.1,0.4-0.3,0.7-0.4c0.7,0.5,1,0.5,0.8,0c0-0.2-0.1-0.4-0.1-0.5c-0.1-0.4-0.3-0.8-0.6-1.1
			c-0.5-0.5-1.2-0.7-1.9-0.7C173.5,150.5,172.4,151.8,172,153.3c1,0.2,2,0.5,2.9,0.7c0.3-1.1,0-2.1-0.8-2.9
			C172.7,149.8,170.6,151.9,172,153.3L172,153.3z"/>
	</g>
</g>
<g>
	<g>
		<path class="st0" d="M180.2,139.4c-1.3,1.9-2.8,3.2-4.8,4.4c-0.8,0.5-1.1,1.7-0.3,2.4c1.1,0.9,1.7,1.4,3.2,1.2
			c0.7-0.1,1.3-0.4,1.9-0.7c2.3-0.9,4.1-1.3,6.6-1.1c6.1,0.5,17.7,1.8,19.7,8.7c0.9-0.4,1.8-0.8,2.7-1.2c-1-2.1-0.9-4.8-2.4-6.7
			c-1.5-1.9-4-2.4-6.2-3c-6.5-1.7-13.1-4.1-19.9-4.1c0,1,0,2,0,3c4.8-0.3,9.7-0.6,14.5,0.4c2.6,0.6,9.4,2.5,10,5.6
			c-0.1-0.5-0.6-1-1-1c-3.1-0.5-1.8-5.3-3.3-7.1c-1.5-1.8-6.4-2.4-8.5-2.8c-3.3-0.7-11-2.9-13.5,0.5c-2.4,3.2,1.9,5.3,4.3,6
			c1.4,0.4,2.1-0.4,3.6,0.9c1.1,1,1.8,3.8,2.5,5.2c1,2,7.2,12.7,4.7,14.2c-1.1,0.6-0.9,2.5,0.4,2.7c0.3,0.2,0.6,0.5,0.9,0.7
			c0.6-0.6,1.2-1.2,1.8-1.8c-0.5,1-0.9,2-1.4,2.9c-0.8,0.7-0.4,2.3,0.7,2.5c3.3,0.5,7.2,0.1,10.4-1.1c-0.5-0.8-1-1.7-1.5-2.5
			c-0.4,0.4-0.7,0.9-1.1,1.3c-0.7,0.8-0.5,2.3,0.7,2.5c0.6,0.1,1.1,0.2,1.7,0.3c-0.3-0.6-0.7-1.2-1-1.8c-0.3,0.5-0.6,1.1-0.8,1.6
			c0.7,0,1.4,0,2.1,0c-2.8-2.6-4.1-6-6.6-8.8c-1.7-1.9-3.2-2.4-5.7-2.1c-1.7,0.2-4.2,0.8-5,2.6c-0.3,0.6-0.2,1.3-0.1,1.9
			c0,1.1,2.2,1.1,0.4,1.7c-1.8,0.6-1.1,3.5,0.8,2.9c3.2-1,2.8-1.8,3-4.4c0-0.7-3.7-1.9,1-1.7c2.2,0.1,4.1,2.7,5.1,4.3
			c1.4,2.2,3,4,4.9,5.7c0.6,0.5,1.5,0.6,2.1,0c1.2-1.2,1.3-1.3,1.6-3c0.2-0.8-0.2-1.7-1-1.8c-0.6-0.1-1.1-0.2-1.7-0.3
			c0.2,0.8,0.4,1.7,0.7,2.5c0.4-0.4,0.7-0.9,1.1-1.3c0.9-1,0.1-3.1-1.5-2.5c-2.8,1-8.9-0.1-9.1,4.5c-0.1,2.8,2.4,3.7,4.6,2.7
			c0.5-0.2,0.7-0.8,0.7-1.3c0.2-3.2-2.3-4.3-5.1-4.8c0.2,0.8,0.4,1.7,0.7,2.5c2.3-2,3.4-8.6-1.6-7.5c-3,0.6-2.6,4.6,0,5.4
			c1,0.3,2.2-0.8,1.8-1.8c-0.6-1.6-1.3-2.4-3-2.8c0.1,0.9,0.2,1.8,0.4,2.7c3.2-1.8,2.6-4.9,1.3-7.8c-1.6-3.5-3.3-7-4.9-10.5
			c-0.9-1.9-1.6-4.8-3.1-6.4c-1.3-1.3-2.3-0.6-3.7-1.2c-0.6-0.5-1.3-1.1-1.9-1.6c0.9,0,1.8,0.1,2.7,0.2c1.9,0.2,3.9,0.4,5.8,0.8
			c1.5,0.3,3.9,0.5,5.2,1.3c3.4,2.2,1.4,2,2.2,4.1c0.6,1.6,1,2.5,2.2,3.7c1.5,1.6,2.9,4.6,5.7,4c2.8-0.6,2.9-3.6,1.8-5.7
			c-4.9-9.4-19.1-9-27.9-8.5c-1.9,0.1-1.9,3,0,3c5.3,0,10.5,1.7,15.6,3.1c3,0.8,5.2,1,7.3,3.3c1.8,1.9,1.9,3.7,3,6
			c0.7,1.5,3.2,0.5,2.7-1.2c-1.7-5.9-6.9-7.8-12.4-9c-3.3-0.8-6.6-1.5-10-1.8c-1.3-0.1-2.5-0.2-3.8-0.1c-0.7,0.1-5.6,1.9-6.1,1.5
			c-0.1,0.8-0.2,1.6-0.3,2.4c2.5-1.5,4.2-3.1,5.9-5.5C183.9,139.3,181.3,137.8,180.2,139.4L180.2,139.4z"/>
	</g>
</g>
<g>
	<g>
		<path class="st0" d="M185,156.7c0.3,0-2.3,0.1-2.3,0.1c0.9,0.9,1.8,1.8,2.7,2.7c-0.1-0.2-0.2-0.5-0.4-0.7c0.3,1.3,0.7,2.5,1,3.8
			c-0.2-1.5-0.8-3.6-0.7-5c-0.3,1.3-0.7,2.5-1,3.8c0.1-0.3,0.3-0.6,0.4-0.9c-0.9,0.9-1.8,1.8-2.7,2.7c0.3-0.2,0.5-0.4,0.8-0.6
			c-3-0.4-6.1-0.8-9.1-1.2c0.2,0.3,0.4,0.5,0.6,0.8c-0.6-1.1-1.3-2.2-1.9-3.3c1.9,5.4,2.7,10.6,7.8,14.1c5.1,3.6,12.6,3.8,18.6,3.9
			c0-5,0-10,0-15c-2.3,0-4.9-1.9-7.1-2.7c-1.5-0.6-2.7-0.8-4.3-1c-0.4,0-4.5-0.5-3.1,0.2c-2.5,4.3-5,8.6-7.6,13
			c5.5,2.4,10.9,3.7,16.9,3.1c4-0.4,7.5-3.2,7.5-7.5c0-3.8-3.4-7.9-7.5-7.5c-3.2,0.3-6.3,0.2-9.3-1.1c-3.7-1.6-8-1.1-10.3,2.7
			c-1.9,3.3-1,8.5,2.7,10.3c2.1,1,4.1,1.6,6.5,1.7c1.4,0,2.5-0.1,3.8,0.3c4.1,1.4,7.2,3.6,11.7,3.5c9.7-0.1,9.6-14.7,0-15
			c-2.6-0.1-8.4,0.3-10.3-1.6c-0.8-0.8-0.8-2.5-1.1-3.5c-0.6-2.3-1.5-4.1-3-6c-1.9-2.4-6.7-3-9.1-1.2c-5,3.7-5.6,8.8-4.1,14
			c1.9,6.7,7.4,8,13.8,8.2C194.7,171.9,194.7,156.9,185,156.7L185,156.7z"/>
	</g>
</g>
<g>
	<g>
		<path class="st0" d="M297.3,206.8c-0.9-1-1.9-2.1-2.8-3.1c4.8,0,9.6,0,14.5,0c0-0.3-0.1-0.5-0.1-0.8c-0.3,1.9-0.5,3.9-0.8,5.8
			c-2,1.4-2.3,1.8-0.9,1.3c0.8-0.3,1.5-0.5,2.3-0.6c0.4-0.1,0.8-0.1,1.2-0.2c3.3,0.2,2.4-0.8-2.7-3.2c0-1.3,0-2.7,0-4
			c0.3-0.4,0.7-0.8,1-1.2c-8.2,5.5-1.1,16.8,7.6,13c0.3,0,0.6,0,0.8-0.1c-1.3,0-2.7,0-4,0c-0.3-0.2-0.7-0.4-1-0.6
			c-0.7-1.8-1.5-3.5-2.2-5.3c0,0.3,0.1,0.6,0.1,0.9c0.3-1.3,0.7-2.5,1-3.8c0.5-0.5,1-1,1.5-1.5c-7.4,3.8-2.2,16.8,5.8,13.7
			c1.3-0.5,2.6-1,3.9-1.5c-2.8-1.1-5.6-2.3-8.5-3.4c0.2,0.3,0.3,0.7,0.5,1c-0.3-1.3-0.7-2.5-1-3.8c0,0.4,0,0.8,0,1.1
			c0.3-1.3,0.7-2.5,1-3.8c-0.2,0.3-0.3,0.7-0.5,1c-2.6,5.3,0.6,10.9,6.5,11.3c0.5,0,1,0.1,1.5,0.1c-2.2-3.8-4.3-7.5-6.5-11.3
			c-1.2,1.8-6.4,2.9-8.4,2.4c-1.3-0.4-2.6-2.4-4-2.9c-1.5-1.5-1.9-1.4-1,0.3c-0.1-1,0-1.9,0.1-2.8c-0.3,1.3-0.7,2.5-1,3.8
			c-0.6,1.2-2.8,1.1-0.3,0.9c1.1-0.1,2.3-0.4,3.4-0.8c2.3-0.8,4.4-2,6-3.8c3.3-3.8-2.6,0.8-2.7,0.6c0,0,3.1,0,3.3,0
			c1,0.1,2.1,0.4,3.1,0.4c1,0,1,1.2,0.8-0.2c0.4,4,3.2,7.5,7.5,7.5c3.7,0,7.9-3.4,7.5-7.5c-1.1-11.4-11.1-15.5-21.5-15.2
			c-2.1,0.1-4.3,0.2-6.2,1.4c-1.1,0.7-1.7,1.7-2.7,2.5c-1.9,1.7,1.4-0.1-0.5,0.3c-5.1,1.1-10,2.3-11.5,8.1
			c-1.2,4.6-0.1,10.3,3.2,13.7c2.9,3,7.7,6.6,11.7,8c9,3.1,20.9-1.3,26.1-9c3.4-5.1-1.2-10.9-6.5-11.3c-0.5,0-1-0.1-1.5-0.1
			c2.2,3.8,4.3,7.5,6.5,11.3c1.9-3.9,1.9-6.9,0-10.7c-1.4-2.7-5.5-4.6-8.5-3.4c-1.3,0.5-2.6,1-3.9,1.5c1.9,4.6,3.9,9.1,5.8,13.7
			c4.8-2.5,6.3-8.7,3.2-13.1c-3.6-5.1-9.4-4.7-14.6-2.4c2.5,4.3,5,8.6,7.6,13c3.8-2.5,6.4-6,6-10.8c-0.4-4.9-4.4-8.4-9.2-8.8
			c-8.8-0.7-20.4,3.1-18.9,13.5c1.1,8.1,12.2,6.1,14.5,0c3-8.2-3.4-15.8-11.7-15.9C287.6,191.7,287.6,206.7,297.3,206.8L297.3,206.8
			z"/>
	</g>
</g>
<g>
	<g>
		<path class="st0" d="M317.3,189.2c-10.3,0.5-33-1.8-32.1,14.2c0.3,5.5,1.6,10.7,5.8,14.2c2.2,1.8,3.5,4.4,6.2,5.5
			c2.8,1.2,6.2,1.4,9.3,1.7c3.9,0.3,3.8-5.7,0-6c-2.7-0.2-5.9-0.3-8-2.1c-0.9-0.8-1.5-2.1-2.5-2.9c-3.3-2.7-4.3-5.6-4.6-9.9
			c-0.5-7.1,6.2-7.7,11.8-8.1c4.7-0.3,9.4-0.5,14.2-0.7C321.1,195,321.1,189,317.3,189.2L317.3,189.2z"/>
	</g>
</g>
<g>
	<g>
		<path class="st0" d="M303.2,219.1c-2.5,0.3-4.7-1-6.1-2.8c-1-1.3-3.2-1.1-4.2,0c-1.3,1.3-1,3,0,4.2c2.9,3.7,7.5,5,12,4.4
			c1.6-0.2,2.5-2.3,2.1-3.7C306.4,219.4,304.8,218.9,303.2,219.1L303.2,219.1z"/>
	</g>
</g>
<g>
	<g>
		<path class="st0" d="M295.7,215.7c-2.2-1.5-6-9.9-3.7-12.3c1.3-1.3,4.5-1.5,6.2-1.5c2.2-0.1,4.5,1.2,6.6,0.6
			c0.8,0.1,1.5,0.2,2.3,0.3c0.1,0.2,0.3,0.5,0.4,0.7c-0.7,1.2-1.4,2.5-2.1,3.7c1,0,1.7-0.4,2-1.4c1,3.7,6.8,2.1,5.8-1.6
			c-1.2-4.3-5.9-3.7-9.4-2.8c-1.5,0.4-2.6,2.1-2.1,3.7c1.5,5,8.4,3.6,8.2-1.6c-0.2-6.1-7.5-7.9-12.3-7.6c-4.9,0.3-12.1,2.2-12.4,8.3
			c-0.2,5.6,2.8,13.5,7.6,16.7C295.9,223.1,298.9,217.9,295.7,215.7L295.7,215.7z"/>
	</g>
</g>
<g>
	<g>
		<path class="st0" d="M171.1,153.7c0,0.1,0,0.2,0,0.4c0-0.3,0.1-0.5,0.1-0.8c-0.1,0.5-0.2,1.1-0.4,1.6c0.1-0.2,0.2-0.5,0.3-0.7
			c0,0.1-0.1,0.2-0.1,0.3c1.7,0,3.5,0,5.2,0c-0.1-0.1-0.1-0.2-0.2-0.3c0.1,0.2,0.2,0.5,0.3,0.7c-0.1-0.2-0.1-0.3-0.1-0.4
			c0,0.3,0.1,0.5,0.1,0.8c0-0.2,0-0.3,0-0.5c0,0.3-0.1,0.5-0.1,0.8c0-0.1,0-0.2,0.1-0.3c0.4-1.5-0.5-3.3-2.1-3.7
			c-1.5-0.4-3.3,0.5-3.7,2.1c-0.3,1.3-0.2,2.7,0.5,3.8c0.6,0.9,1.5,1.5,2.6,1.5c1,0,2.2-0.6,2.6-1.5c0.6-1.3,0.9-2.4,1-3.8
			c0.1-0.7-0.4-1.6-0.9-2.1c-0.5-0.5-1.4-0.9-2.1-0.9c-0.8,0-1.6,0.3-2.1,0.9C171.4,152.2,171.2,152.9,171.1,153.7L171.1,153.7z"/>
	</g>
</g>
</svg>
