<svg xmlns="http://www.w3.org/2000/svg" width="100" height="100" viewBox="0 0 100 100">
    <g fill="none" fill-rule="evenodd">
        <path fill="#3CA6E8" d="M97 48.124v48.497H2V48.124A8.503 8.503 0 0 0 17.5 47a8.503 8.503 0 0 0 16 0 8.503 8.503 0 0 0 16 0 8.503 8.503 0 0 0 16 0 8.503 8.503 0 0 0 16 0A8.503 8.503 0 0 0 97 48.124z"/>
        <g>
            <path fill="#FFF" d="M46 67.75V15a4 4 0 1 1 8 0v52.75c4.097 1.6 7 5.586 7 10.25 0 6.075-4.925 11-11 11s-11-4.925-11-11c0-4.664 2.903-8.65 7-10.25z"/>
            <path fill="#ED3209" d="M46 67.75V36h8v31.75c4.097 1.6 7 5.586 7 10.25 0 6.075-4.925 11-11 11s-11-4.925-11-11c0-4.664 2.903-8.65 7-10.25z"/>
            <path stroke="#000" d="M46.5 14v54.091l-.318.125A10.503 10.503 0 0 0 39.5 78c0 5.799 4.701 10.5 10.5 10.5S60.5 83.799 60.5 78c0-4.363-2.686-8.224-6.682-9.784l-.318-.125V14a3.5 3.5 0 0 0-7 0z"/>
        </g>
    </g>
</svg>
