<svg xmlns="http://www.w3.org/2000/svg" xmlns:xlink="http://www.w3.org/1999/xlink" width="100" height="100" viewBox="0 0 100 100">
    <defs>
        <path id="a" d="M3 6h15v10H3a3 3 0 0 1-3-3V9a3 3 0 0 1 3-3z"/>
        <path id="b" d="M94 9v4a3 3 0 0 1-3 3H76V6h15a3 3 0 0 1 3 3z"/>
        <path id="c" d="M16 4h9v14h-9a2 2 0 0 1-2-2V6a2 2 0 0 1 2-2z"/>
        <path id="d" d="M78 4c1.105 0 2 .836 2 1.867v10.266C80 17.164 79.105 18 78 18h-9V4h9z"/>
        <ellipse id="e" cx="47" cy="11" rx="9" ry="8"/>
        <path id="f" d="M3 0h4a3 3 0 0 1 3 3v46a3 3 0 0 1-3 3H3a3 3 0 0 1-3-3V3a3 3 0 0 1 3-3z"/>
    </defs>
    <g fill="none" fill-rule="evenodd">
        <g transform="translate(3 21)">
            <use fill="#F9F9F9" xlink:href="#a"/>
            <path stroke="#979797" d="M17.5 15.5v-9H3A2.5 2.5 0 0 0 .5 9v4A2.5 2.5 0 0 0 3 15.5h14.5z"/>
        </g>
        <g transform="translate(3 21)">
            <use fill="#F9F9F9" xlink:href="#b"/>
            <path stroke="#979797" d="M76.5 6.5v9H91a2.5 2.5 0 0 0 2.5-2.5V9A2.5 2.5 0 0 0 91 6.5H76.5z"/>
        </g>
        <g transform="translate(3 21)">
            <use fill="#D8D8D8" xlink:href="#c"/>
            <path stroke="#979797" d="M24.5 17.5v-13H16A1.5 1.5 0 0 0 14.5 6v10a1.5 1.5 0 0 0 1.5 1.5h8.5z"/>
        </g>
        <g transform="translate(3 21)">
            <use fill="#D8D8D8" xlink:href="#d"/>
            <path stroke="#979797" d="M69.5 4.5v13H78c.836 0 1.5-.62 1.5-1.367V5.867c0-.747-.664-1.367-1.5-1.367h-8.5z"/>
        </g>
        <path fill="#414141" d="M27 21h46a3 3 0 0 1 3 3v16a3 3 0 0 1-3 3H27a3 3 0 0 1-3-3V24a3 3 0 0 1 3-3zm23 18.857c4.97 0 9-3.283 9-7.333 0-4.05-4.03-7.334-9-7.334s-9 3.284-9 7.334 4.03 7.333 9 7.333z"/>
        <g transform="translate(3 21)">
            <use fill="#D5D5D5" xlink:href="#e"/>
            <ellipse cx="47" cy="11" stroke="#979797" rx="9.5" ry="8.5"/>
        </g>
        <g transform="translate(45.084 26.998)">
            <use fill="#F9F9F9" xlink:href="#f"/>
            <path stroke="#979797" d="M3 .5A2.5 2.5 0 0 0 .5 3v46A2.5 2.5 0 0 0 3 51.5h4A2.5 2.5 0 0 0 9.5 49V3A2.5 2.5 0 0 0 7 .5H3z"/>
            <path stroke="#979797" d="M.362 31c1.629.796 3.182 1.193 4.66 1.193 1.48 0 2.995-.397 4.548-1.193"/>
            <circle cx="5" cy="5" r="2" fill="#D5D5D5" stroke="#979797"/>
        </g>
    </g>
</svg>
