<svg xmlns="http://www.w3.org/2000/svg" width="100" height="84" viewBox="0 0 100 84">
    <g fill="none" fill-rule="evenodd" transform="translate(1 1)">
        <path stroke="#414141" d="M0 56h16l10 23h46l10-23h16"/>
        <path fill="#9FA0A5" stroke="#414141" d="M66 28v14H32V28h-4M28 42h42v4H28z"/>
        <path fill="#FFF" stroke="#414141" d="M32 46h34v11H32z"/>
        <path fill="#EBEBEB" d="M29 43h14v2H29z"/>
        <path stroke="#414141" d="M70 0v28H28V0"/>
        <path fill="#FFF" d="M54 5h6v21h-6zM63 31h1v8h-1zM29 26h40v1H29z"/>
        <ellipse cx="49" cy="63" fill="#414141" rx="2.5" ry="1"/>
        <path stroke="#414141" d="M49.186 57.165c-1.278 2.996-2.003 4.84-2.175 5.534-.155.626.956.64 3.335.044a.5.5 0 0 1 .605.61c-1.038 4-1.911 6.729-2.62 8.188-.756 1.557-.993 2.871-.71 3.943"/>
        <path fill="#414141" d="M47 74h4v5h-4z"/>
    </g>
</svg>
