<svg xmlns="http://www.w3.org/2000/svg" xmlns:xlink="http://www.w3.org/1999/xlink" width="64" height="64" viewBox="0 0 64 64">
    <defs>
        <path id="a" d="M4 4h55v55H4z"/>
        <filter id="b" width="101.8%" height="101.8%" x="-.9%" y="-.9%" filterUnits="objectBoundingBox">
            <feOffset dx="1" dy="1" in="SourceAlpha" result="shadowOffsetInner1"/>
            <feComposite in="shadowOffsetInner1" in2="SourceAlpha" k2="-1" k3="1" operator="arithmetic" result="shadowInnerInner1"/>
            <feColorMatrix in="shadowInnerInner1" values="0 0 0 0 1 0 0 0 0 1 0 0 0 0 1 0 0 0 0.16 0"/>
        </filter>
        <path id="d" d="M14 12h35a2 2 0 0 1 2 2v5a2 2 0 0 1-2 2H14a2 2 0 0 1-2-2v-5a2 2 0 0 1 2-2z"/>
        <filter id="c" width="105.1%" height="122.2%" x="-1.3%" y="-5.6%" filterUnits="objectBoundingBox">
            <feOffset dx="1" dy="1" in="SourceAlpha" result="shadowOffsetOuter1"/>
            <feColorMatrix in="shadowOffsetOuter1" values="0 0 0 0 1 0 0 0 0 1 0 0 0 0 1 0 0 0 0.48 0"/>
        </filter>
        <filter id="e" width="107.7%" height="133.3%" x="-2.6%" y="-11.1%" filterUnits="objectBoundingBox">
            <feGaussianBlur in="SourceAlpha" result="shadowBlurInner1" stdDeviation=".5"/>
            <feOffset dx="1" dy="1" in="shadowBlurInner1" result="shadowOffsetInner1"/>
            <feComposite in="shadowOffsetInner1" in2="SourceAlpha" k2="-1" k3="1" operator="arithmetic" result="shadowInnerInner1"/>
            <feColorMatrix in="shadowInnerInner1" values="0 0 0 0 0 0 0 0 0 0 0 0 0 0 0 0 0 0 0.5 0"/>
        </filter>
        <rect id="g" width="3" height="21" rx="1"/>
        <filter id="f" width="233.3%" height="119%" x="-66.7%" y="-4.8%" filterUnits="objectBoundingBox">
            <feOffset dy="1" in="SourceAlpha" result="shadowOffsetOuter1"/>
            <feGaussianBlur in="shadowOffsetOuter1" result="shadowBlurOuter1" stdDeviation=".5"/>
            <feColorMatrix in="shadowBlurOuter1" values="0 0 0 0 0 0 0 0 0 0 0 0 0 0 0 0 0 0 0.38 0"/>
        </filter>
        <rect id="i" width="3" height="13" x="4" y="8" rx="1"/>
        <filter id="h" width="233.3%" height="130.8%" x="-66.7%" y="-7.7%" filterUnits="objectBoundingBox">
            <feOffset dy="1" in="SourceAlpha" result="shadowOffsetOuter1"/>
            <feGaussianBlur in="shadowOffsetOuter1" result="shadowBlurOuter1" stdDeviation=".5"/>
            <feColorMatrix in="shadowBlurOuter1" values="0 0 0 0 0 0 0 0 0 0 0 0 0 0 0 0 0 0 0.38 0"/>
        </filter>
        <rect id="k" width="3" height="18" x="8" y="3" rx="1"/>
        <filter id="j" width="233.3%" height="122.2%" x="-66.7%" y="-5.6%" filterUnits="objectBoundingBox">
            <feOffset dy="1" in="SourceAlpha" result="shadowOffsetOuter1"/>
            <feGaussianBlur in="shadowOffsetOuter1" result="shadowBlurOuter1" stdDeviation=".5"/>
            <feColorMatrix in="shadowBlurOuter1" values="0 0 0 0 0 0 0 0 0 0 0 0 0 0 0 0 0 0 0.38 0"/>
        </filter>
        <rect id="m" width="3" height="8" x="12" y="13" rx="1"/>
        <filter id="l" width="233.3%" height="150%" x="-66.7%" y="-12.5%" filterUnits="objectBoundingBox">
            <feOffset dy="1" in="SourceAlpha" result="shadowOffsetOuter1"/>
            <feGaussianBlur in="shadowOffsetOuter1" result="shadowBlurOuter1" stdDeviation=".5"/>
            <feColorMatrix in="shadowBlurOuter1" values="0 0 0 0 0 0 0 0 0 0 0 0 0 0 0 0 0 0 0.38 0"/>
        </filter>
        <rect id="o" width="3" height="21" rx="1"/>
        <filter id="n" width="233.3%" height="119%" x="-66.7%" y="-4.8%" filterUnits="objectBoundingBox">
            <feOffset dy="1" in="SourceAlpha" result="shadowOffsetOuter1"/>
            <feGaussianBlur in="shadowOffsetOuter1" result="shadowBlurOuter1" stdDeviation=".5"/>
            <feColorMatrix in="shadowBlurOuter1" values="0 0 0 0 0 0 0 0 0 0 0 0 0 0 0 0 0 0 0.38 0"/>
        </filter>
        <rect id="q" width="3" height="13" x="4" y="8" rx="1"/>
        <filter id="p" width="233.3%" height="130.8%" x="-66.7%" y="-7.7%" filterUnits="objectBoundingBox">
            <feOffset dy="1" in="SourceAlpha" result="shadowOffsetOuter1"/>
            <feGaussianBlur in="shadowOffsetOuter1" result="shadowBlurOuter1" stdDeviation=".5"/>
            <feColorMatrix in="shadowBlurOuter1" values="0 0 0 0 0 0 0 0 0 0 0 0 0 0 0 0 0 0 0.38 0"/>
        </filter>
        <rect id="s" width="3" height="18" x="8" y="3" rx="1"/>
        <filter id="r" width="233.3%" height="122.2%" x="-66.7%" y="-5.6%" filterUnits="objectBoundingBox">
            <feOffset dy="1" in="SourceAlpha" result="shadowOffsetOuter1"/>
            <feGaussianBlur in="shadowOffsetOuter1" result="shadowBlurOuter1" stdDeviation=".5"/>
            <feColorMatrix in="shadowBlurOuter1" values="0 0 0 0 0 0 0 0 0 0 0 0 0 0 0 0 0 0 0.38 0"/>
        </filter>
        <rect id="u" width="3" height="8" x="12" y="13" rx="1"/>
        <filter id="t" width="233.3%" height="150%" x="-66.7%" y="-12.5%" filterUnits="objectBoundingBox">
            <feOffset dy="1" in="SourceAlpha" result="shadowOffsetOuter1"/>
            <feGaussianBlur in="shadowOffsetOuter1" result="shadowBlurOuter1" stdDeviation=".5"/>
            <feColorMatrix in="shadowBlurOuter1" values="0 0 0 0 0 0 0 0 0 0 0 0 0 0 0 0 0 0 0.38 0"/>
        </filter>
    </defs>
    <g fill="none" fill-rule="evenodd">
        <g>
            <use fill="#4C4C44" xlink:href="#a"/>
            <use fill="#000" filter="url(#b)" xlink:href="#a"/>
        </g>
        <path fill="#000" d="M7 7h49v49H7z"/>
        <path fill="#C4C4C4" d="M13 10h37a3 3 0 0 1 3 3v37a3 3 0 0 1-3 3H13a3 3 0 0 1-3-3V13a3 3 0 0 1 3-3z"/>
        <g>
            <use fill="#000" filter="url(#c)" xlink:href="#d"/>
            <use fill="#149B7D" xlink:href="#d"/>
            <use fill="#000" filter="url(#e)" xlink:href="#d"/>
        </g>
        <path fill="#4D4D4D" d="M14 24h35a2 2 0 0 1 2 2v23a2 2 0 0 1-2 2H14a2 2 0 0 1-2-2V26a2 2 0 0 1 2-2z"/>
        <g transform="translate(15 27)">
            <use fill="#000" filter="url(#f)" xlink:href="#g"/>
            <use fill="#60C9E3" xlink:href="#g"/>
        </g>
        <g transform="translate(15 27)">
            <use fill="#000" filter="url(#h)" xlink:href="#i"/>
            <use fill="#60C9E3" xlink:href="#i"/>
        </g>
        <g transform="translate(15 27)">
            <use fill="#000" filter="url(#j)" xlink:href="#k"/>
            <use fill="#60C9E3" xlink:href="#k"/>
        </g>
        <g transform="translate(15 27)">
            <use fill="#000" filter="url(#l)" xlink:href="#m"/>
            <use fill="#60C9E3" xlink:href="#m"/>
        </g>
        <g>
            <g transform="translate(33 27)">
                <use fill="#000" filter="url(#n)" xlink:href="#o"/>
                <use fill="#FCFF3F" xlink:href="#o"/>
            </g>
            <g transform="translate(33 27)">
                <use fill="#000" filter="url(#p)" xlink:href="#q"/>
                <use fill="#FCFF3F" xlink:href="#q"/>
            </g>
            <g transform="translate(33 27)">
                <use fill="#000" filter="url(#r)" xlink:href="#s"/>
                <use fill="#FCFF3F" xlink:href="#s"/>
            </g>
            <g transform="translate(33 27)">
                <use fill="#000" filter="url(#t)" xlink:href="#u"/>
                <use fill="#FCFF3F" xlink:href="#u"/>
            </g>
        </g>
    </g>
</svg>
