<svg xmlns="http://www.w3.org/2000/svg" width="100" height="100" viewBox="0 0 100 100">
    <path fill="#000" fill-rule="evenodd" d="M50 27c4.132 0 7.507.727 10.124 2.18 2.617 1.453 4.656 3.307 6.116 5.56a20.818 20.818 0 0 1 2.975 7.425C69.738 44.86 70 47.473 70 50s-.262 5.14-.785 7.835a20.818 20.818 0 0 1-2.975 7.425c-1.46 2.253-3.499 4.107-6.116 5.56C57.507 72.273 54.132 73 50 73c-4.132 0-7.507-.727-10.124-2.18-2.617-1.453-4.656-3.307-6.116-5.56a20.818 20.818 0 0 1-2.975-7.425C30.262 55.14 30 52.527 30 50s.262-5.14.785-7.835a20.818 20.818 0 0 1 2.975-7.425c1.46-2.253 3.499-4.107 6.116-5.56C42.493 27.727 45.868 27 50 27zm0 6c-2.893 0-5.255.537-7.087 1.611-1.832 1.074-3.259 2.444-4.28 4.11a15.888 15.888 0 0 0-2.083 5.488A32.009 32.009 0 0 0 36 50c0 1.868.183 3.799.55 5.791a15.888 15.888 0 0 0 2.082 5.488c1.022 1.666 2.45 3.036 4.281 4.11C44.745 66.463 47.107 67 50 67s5.255-.537 7.087-1.611c1.832-1.074 3.259-2.444 4.28-4.11a15.888 15.888 0 0 0 2.083-5.488C63.817 53.8 64 51.868 64 50c0-1.868-.183-3.799-.55-5.791a15.888 15.888 0 0 0-2.082-5.488c-1.022-1.666-2.45-3.036-4.281-4.11C55.255 33.537 52.893 33 50 33z"/>
</svg>
