<svg xmlns="http://www.w3.org/2000/svg" width="80" height="64" viewBox="0 0 80 64">
    <g fill="none" fill-rule="evenodd">
        <g stroke="#5E5E5E">
            <path fill="#F9F9F9" d="M41 2v26c0 5.523-2.477 10-8 10s-8-4.477-8-10V2"/>
            <path fill="#F1F1E8" d="M52 2v28.65a11 11 0 0 1-2.975 7.523L37 51l.215-12 .61-.422A12 12 0 0 0 43 28.708V2M14 2v28.247a11 11 0 0 0 3.461 8.01L31 51l-2.215-12-.61-.422A12 12 0 0 1 23 28.708V2"/>
        </g>
        <path fill="#FFF" d="M63 16h5v19.044A6.001 6.001 0 0 1 71.48 41H59.52A6.001 6.001 0 0 1 63 35.044V16z"/>
        <path fill="#ED3209" d="M59.52 41A6.001 6.001 0 0 1 63 35.044V23h5v12.044A6.001 6.001 0 0 1 71.48 41H59.52z"/>
        <path stroke="#414141" d="M67.5 16.5h-4v18.865l-.291.133A5.5 5.5 0 0 0 60 40.5h11a5.5 5.5 0 0 0-3.209-5.002l-.291-.133V16.5z"/>
    </g>
</svg>
