<svg xmlns="http://www.w3.org/2000/svg" xmlns:xlink="http://www.w3.org/1999/xlink" width="100" height="100" viewBox="0 0 100 100">
    <defs>
        <path id="a" d="M0 0h100v100H0z"/>
        <filter id="b" width="102%" height="102%" x="-1%" y="-1%" filterUnits="objectBoundingBox">
            <feOffset dx="2" dy="2" in="SourceAlpha" result="shadowOffsetInner1"/>
            <feComposite in="shadowOffsetInner1" in2="SourceAlpha" k2="-1" k3="1" operator="arithmetic" result="shadowInnerInner1"/>
            <feColorMatrix in="shadowInnerInner1" result="shadowMatrixInner1" values="0 0 0 0 0.843776573 0 0 0 0 0.843776573 0 0 0 0 0.843776573 0 0 0 0.668478261 0"/>
            <feOffset dx="-2" dy="-2" in="SourceAlpha" result="shadowOffsetInner2"/>
            <feComposite in="shadowOffsetInner2" in2="SourceAlpha" k2="-1" k3="1" operator="arithmetic" result="shadowInnerInner2"/>
            <feColorMatrix in="shadowInnerInner2" result="shadowMatrixInner2" values="0 0 0 0 0.197650935 0 0 0 0 0.197650935 0 0 0 0 0.197650935 0 0 0 1 0"/>
            <feMerge>
                <feMergeNode in="shadowMatrixInner1"/>
                <feMergeNode in="shadowMatrixInner2"/>
            </feMerge>
        </filter>
        <path id="c" d="M.58 10.996a8 8 0 1 1 14.84 0L10 39H6L.58 10.996z"/>
        <path id="d" d="M.58 47.996a8 8 0 1 1 14.84 0L10 76H6L.58 47.996z"/>
        <path id="e" d="M.58 10.996a8 8 0 1 1 14.84 0L10 39H6L.58 10.996z"/>
        <path id="f" d="M.58 47.996a8 8 0 1 1 14.84 0L10 76H6L.58 47.996z"/>
        <circle id="g" cx="38" cy="42" r="8"/>
        <circle id="h" cx="72" cy="8" r="8"/>
    </defs>
    <g fill="none" fill-rule="evenodd">
        <g>
            <use fill="#F9F9F9" xlink:href="#a"/>
            <use fill="#000" filter="url(#b)" xlink:href="#a"/>
            <path stroke="#000" stroke-opacity=".38" d="M.5.5h99v99H.5z"/>
        </g>
        <g transform="translate(42 12)">
            <use fill="#D5D5D5" xlink:href="#c"/>
            <path stroke="#000" stroke-opacity=".4" d="M6.413 38.5h3.175l5.369-27.691a7.5 7.5 0 1 0-13.913 0l.027.092L6.413 38.5z"/>
        </g>
        <g transform="matrix(1 0 0 -1 42 125)">
            <use fill="#D5D5D5" xlink:href="#d"/>
            <path stroke="#000" stroke-opacity=".4" d="M6.413 75.5h3.175l5.369-27.691a7.5 7.5 0 1 0-13.913 0l.027.092L6.413 75.5z"/>
        </g>
        <g transform="rotate(90 23 65)">
            <use fill="#D5D5D5" xlink:href="#e"/>
            <path stroke="#000" stroke-opacity=".4" d="M6.413 38.5h3.175l5.369-27.691a7.5 7.5 0 1 0-13.913 0l.027.092L6.413 38.5z"/>
        </g>
        <g transform="matrix(0 1 1 0 -25 42)">
            <use fill="#D5D5D5" xlink:href="#f"/>
            <path stroke="#000" stroke-opacity=".4" d="M6.413 75.5h3.175l5.369-27.691a7.5 7.5 0 1 0-13.913 0l.027.092L6.413 75.5z"/>
        </g>
        <g transform="translate(12 8)">
            <use fill="#D5D5D5" xlink:href="#g"/>
            <circle cx="38" cy="42" r="7.5" stroke="#000" stroke-opacity=".4"/>
        </g>
        <g transform="translate(12 8)">
            <use fill="#ED3209" xlink:href="#h"/>
            <circle cx="72" cy="8" r="7.5" stroke="#000" stroke-opacity=".4"/>
        </g>
    </g>
</svg>
