<svg xmlns="http://www.w3.org/2000/svg" xmlns:xlink="http://www.w3.org/1999/xlink" width="100" height="100" viewBox="0 0 100 100">
    <defs>
        <path id="a" d="M27.093 33H32l4-4v30l-4-4H8l-4 4V29l4 4h5.15"/>
        <path id="b" d="M9 17h22v10H9z"/>
        <path id="c" d="M9 8h22v10H9z"/>
        <path id="d" d="M0 29h5v30H0z"/>
        <path id="e" d="M35 29h5v30h-5z"/>
        <circle id="f" cx="16" cy="16" r="8"/>
    </defs>
    <g fill="none" fill-rule="evenodd">
        <path fill="#D5D5D5" d="M64 47v6c0 2.21-3.134 4-7 4s-7-1.79-7-4v-6"/>
        <g transform="translate(37 20)">
            <use fill="#D5D5D5" xlink:href="#a"/>
            <path stroke="#979797" d="M4.5 30.207v27.586L7.793 54.5h24.414l3.293 3.293V30.207L32.207 33.5H7.793L4.5 30.207z"/>
        </g>
        <path stroke="#979797" stroke-linecap="square" d="M41 53l2.5 2.5h8.503m9.997 0h8.5L73 53M52 47.5v8M62 47.5v8"/>
        <g transform="translate(37 20)">
            <use fill="#B5C6EA" xlink:href="#b"/>
            <path stroke="#979797" d="M9.5 17.5h21v9h-21z"/>
        </g>
        <g transform="translate(37 20)">
            <use fill="#2921FC" xlink:href="#c"/>
            <path stroke="#979797" d="M9.5 8.5h21v9h-21z"/>
        </g>
        <path stroke="#979797" stroke-linecap="square" d="M41 75l2.5-2.5h27L73 75M42 57.5h31M42 70.5h31"/>
        <g transform="translate(37 20)">
            <use fill="#FFF" xlink:href="#d"/>
            <path stroke="#979797" d="M.5 29.5h4v29h-4z"/>
        </g>
        <g transform="translate(37 20)">
            <use fill="#FFF" xlink:href="#e"/>
            <path stroke="#979797" d="M35.5 29.5h4v29h-4z"/>
        </g>
        <path stroke="#979797" stroke-linecap="square" d="M50 53.5V47M64 53.5V47"/>
        <path fill="#F9F9F9" d="M42 61h30v6H42z"/>
        <path fill="#979797" d="M56 24h2v4h-2zM50 20h14v4H50z"/>
        <g>
            <use fill="#ED3209" xlink:href="#f"/>
            <circle cx="16" cy="16" r="7.5" stroke="#000" stroke-opacity=".4"/>
        </g>
    </g>
</svg>
