<svg xmlns="http://www.w3.org/2000/svg" width="64" height="64" viewBox="0 0 64 64">
    <g fill="none" fill-rule="evenodd">
        <path fill="#FFF" stroke="#000" stroke-opacity=".32" d="M38 23.248V20a6 6 0 1 0-12 0v3.248A14.95 14.95 0 0 1 32 22c2.133 0 4.163.445 6 1.248zM22 25.82V20c0-5.523 4.477-10 10-10s10 4.477 10 10v5.82c3.069 2.746 5 6.738 5 11.18 0 8.284-6.716 15-15 15-8.284 0-15-6.716-15-15 0-4.442 1.931-8.434 5-11.18z"/>
        <path fill="#C0B9B3" stroke="#000" stroke-opacity=".32" d="M32 10c5.523 0 10 4.477 10 10v8c0 5.523-4.477 10-10 10s-10-4.477-10-10v-8c0-5.523 4.477-10 10-10zm0 4a6 6 0 0 0-6 6v8a6 6 0 1 0 12 0v-8a6 6 0 0 0-6-6z"/>
        <circle cx="32" cy="37" r="15" fill="#FFF" stroke="#000" stroke-opacity=".32"/>
        <circle cx="32" cy="37" r="10" fill="#4E43C8"/>
        <g fill="#FFF" transform="translate(24 29)">
            <circle cx="1" cy="8" r="1"/>
            <circle cx="15" cy="8" r="1"/>
            <circle cx="8" cy="1" r="1"/>
            <circle cx="8" cy="15" r="1"/>
            <circle cx="8" cy="8" r="3"/>
        </g>
    </g>
</svg>
