<svg xmlns="http://www.w3.org/2000/svg" xmlns:xlink="http://www.w3.org/1999/xlink" width="100" height="84" viewBox="0 0 100 84">
    <defs>
        <path id="a" d="M17 34h13l12 26h3l10-26h15v39H17z"/>
    </defs>
    <g fill="none" fill-rule="evenodd">
        <g>
            <use fill="#D5D5D5" xlink:href="#a"/>
            <path stroke="#414141" d="M17.5 34.5v38h52v-38H55.343l-10 26H41.68l-12-26H17.5z"/>
        </g>
        <path fill="#FFF" d="M80.773 46.56V10.728a2.727 2.727 0 1 1 5.454 0v35.834C89.021 47.648 91 50.357 91 53.526 91 57.654 87.642 61 83.5 61c-4.142 0-7.5-3.346-7.5-7.474 0-3.17 1.98-5.878 4.773-6.965z"/>
        <path fill="#ED3209" d="M80.773 46.468V24h5.454v22.612c2.602 1.15 4.423 3.802 4.423 6.888 0 4.142-3.28 7.5-7.325 7.5C79.279 61 76 57.642 76 53.5c0-3.223 1.986-5.971 4.773-7.032z"/>
        <path stroke="#414141" d="M81.273 9.727v37.121l-.319.124A7.002 7.002 0 0 0 76.5 53.5c0 3.866 3.126 7 6.981 7s6.981-3.134 6.981-7c0-2.9-1.774-5.467-4.419-6.514l-.316-.125V9.727a2.227 2.227 0 0 0-4.454 0z"/>
        <path fill="#F5F5EB" d="M23.8 36.716l9.94 32.363H52.8l11.491-32.363h-9.636l-9.248 23.73H41.76l-11.21-23.73z"/>
        <path stroke="#414141" d="M17.5 34.5v38h52v-38H55.343l-10 26H41.68l-12-26H17.5z"/>
        <path stroke="#414141" stroke-linecap="square" d="M17.5 36.5h13.038M55.1 36.5h14.438"/>
        <path stroke="#414141" d="M81.237 25.5v-2H43.5v2h37.737z"/>
        <path stroke="#414141" stroke-linecap="square" d="M34.493 43.5h17.035"/>
        <path stroke="#414141" d="M23.822 36.692l9.773 32.258H52.7l11.218-32.258"/>
        <path fill="#414141" d="M42 23h3v26h-3z"/>
    </g>
</svg>
