<svg xmlns="http://www.w3.org/2000/svg" xmlns:xlink="http://www.w3.org/1999/xlink" width="100" height="100" viewBox="0 0 100 100">
    <defs>
        <path id="a" d="M27.093 33H32l4-4v30l-4-4H8l-4 4V29l4 4h5.15"/>
        <path id="b" d="M9 17h22v10H9z"/>
        <path id="c" d="M9 8h22v10H9z"/>
        <path id="d" d="M0 29h5v30H0z"/>
        <path id="e" d="M35 29h5v30h-5z"/>
        <path id="g" d="M74 0h6v54h-6z"/>
        <circle id="h" cx="77" cy="66" r="6"/>
    </defs>
    <g fill="none" fill-rule="evenodd">
        <path fill="#D5D5D5" d="M57 48v6c0 2.21-3.134 4-7 4s-7-1.79-7-4v-6"/>
        <g transform="translate(30 21)">
            <use fill="#D5D5D5" xlink:href="#a"/>
            <path stroke="#979797" d="M4.5 30.207v27.586L7.793 54.5h24.414l3.293 3.293V30.207L32.207 33.5H7.793L4.5 30.207z"/>
        </g>
        <path stroke="#979797" stroke-linecap="square" d="M34 54l2.5 2.5h8.503m9.997 0h8.5L66 54M45 48.5v8M55 48.5v8"/>
        <g transform="translate(30 21)">
            <use fill="#B5C6EA" xlink:href="#b"/>
            <path stroke="#979797" d="M9.5 17.5h21v9h-21z"/>
        </g>
        <g transform="translate(30 21)">
            <use fill="#2921FC" xlink:href="#c"/>
            <path stroke="#979797" d="M9.5 8.5h21v9h-21z"/>
        </g>
        <path stroke="#979797" stroke-linecap="square" d="M34 76l2.5-2.5h27L66 76M35 58.5h31M35 71.5h31"/>
        <g transform="translate(30 21)">
            <use fill="#FFF" xlink:href="#d"/>
            <path stroke="#979797" d="M.5 29.5h4v29h-4z"/>
        </g>
        <g transform="translate(30 21)">
            <use fill="#FFF" xlink:href="#e"/>
            <path stroke="#979797" d="M35.5 29.5h4v29h-4z"/>
        </g>
        <path stroke="#979797" stroke-linecap="square" d="M43 54.5V48M57 54.5V48"/>
        <path fill="#F9F9F9" d="M35 62h30v6H35z"/>
        <path fill="#979797" d="M49 25h2v4h-2zM43 21h14v4H43z"/>
        <g transform="translate(8 8)">
            <use fill="#ED3209" xlink:href="#g"/>
            <path stroke="#000" stroke-opacity=".4" d="M74.5.5h5v53h-5z"/>
        </g>
        <g transform="translate(8 8)">
            <use fill="#ED3209" xlink:href="#h"/>
            <circle cx="77" cy="66" r="5.5" stroke="#000" stroke-opacity=".4"/>
        </g>
    </g>
</svg>
