<svg xmlns="http://www.w3.org/2000/svg" xmlns:xlink="http://www.w3.org/1999/xlink" width="120" height="120" viewBox="0 0 120 120">
    <defs>
        <path id="a" d="M28 47h30v45H28z"/>
        <filter id="b" width="103.3%" height="102.2%" x="-1.7%" y="-1.1%" filterUnits="objectBoundingBox">
            <feOffset dx="1" in="SourceAlpha" result="shadowOffsetInner1"/>
            <feComposite in="shadowOffsetInner1" in2="SourceAlpha" k2="-1" k3="1" operator="arithmetic" result="shadowInnerInner1"/>
            <feColorMatrix in="shadowInnerInner1" result="shadowMatrixInner1" values="0 0 0 0 0 0 0 0 0 0 0 0 0 0 0 0 0 0 0.5 0"/>
            <feOffset dx="-1" in="SourceAlpha" result="shadowOffsetInner2"/>
            <feComposite in="shadowOffsetInner2" in2="SourceAlpha" k2="-1" k3="1" operator="arithmetic" result="shadowInnerInner2"/>
            <feColorMatrix in="shadowInnerInner2" result="shadowMatrixInner2" values="0 0 0 0 0 0 0 0 0 0 0 0 0 0 0 0 0 0 0.5 0"/>
            <feMerge>
                <feMergeNode in="shadowMatrixInner1"/>
                <feMergeNode in="shadowMatrixInner2"/>
            </feMerge>
        </filter>
        <path id="c" d="M15 46h56v4H15z"/>
        <filter id="d" width="107.1%" height="200%" x="-3.6%" y="-50%" filterUnits="objectBoundingBox">
            <feGaussianBlur in="SourceAlpha" result="shadowBlurInner1" stdDeviation="1"/>
            <feOffset dy="2" in="shadowBlurInner1" result="shadowOffsetInner1"/>
            <feComposite in="shadowOffsetInner1" in2="SourceAlpha" k2="-1" k3="1" operator="arithmetic" result="shadowInnerInner1"/>
            <feColorMatrix in="shadowInnerInner1" values="0 0 0 0 0 0 0 0 0 0 0 0 0 0 0 0 0 0 0.38 0"/>
        </filter>
        <path id="e" d="M26 12h34v22H26z"/>
        <filter id="f" width="111.8%" height="118.2%" x="-5.9%" y="-9.1%" filterUnits="objectBoundingBox">
            <feGaussianBlur in="SourceAlpha" result="shadowBlurInner1" stdDeviation="1"/>
            <feOffset dy="2" in="shadowBlurInner1" result="shadowOffsetInner1"/>
            <feComposite in="shadowOffsetInner1" in2="SourceAlpha" k2="-1" k3="1" operator="arithmetic" result="shadowInnerInner1"/>
            <feColorMatrix in="shadowInnerInner1" values="0 0 0 0 0 0 0 0 0 0 0 0 0 0 0 0 0 0 0.38 0"/>
        </filter>
        <path id="g" d="M14 0h58v12H14z"/>
        <path id="h" d="M0 38h86v8H0z"/>
        <path id="i" d="M43 19l42 20H1z"/>
        <path id="j" d="M0 16h8v23H0z"/>
        <path id="k" d="M2 12h4v5H2z"/>
        <path id="l" d="M78 16h8v23h-8z"/>
        <path id="m" d="M80 12h4v5h-4z"/>
        <path id="n" d="M13 18h58v13H13z"/>
        <path id="o" d="M41 12h3l2-6h4v11h-9z"/>
        <filter id="p" width="122.2%" height="118.2%" x="-11.1%" y="-9.1%" filterUnits="objectBoundingBox">
            <feOffset dx="2" dy="2" in="SourceAlpha" result="shadowOffsetInner1"/>
            <feComposite in="shadowOffsetInner1" in2="SourceAlpha" k2="-1" k3="1" operator="arithmetic" result="shadowInnerInner1"/>
            <feColorMatrix in="shadowInnerInner1" values="0 0 0 0 0 0 0 0 0 0 0 0 0 0 0 0 0 0 0.38 0"/>
        </filter>
        <path id="q" d="M32 12h3l2-6h4v11h-9z"/>
        <filter id="r" width="122.2%" height="118.2%" x="-11.1%" y="-9.1%" filterUnits="objectBoundingBox">
            <feOffset dx="2" dy="2" in="SourceAlpha" result="shadowOffsetInner1"/>
            <feComposite in="shadowOffsetInner1" in2="SourceAlpha" k2="-1" k3="1" operator="arithmetic" result="shadowInnerInner1"/>
            <feColorMatrix in="shadowInnerInner1" values="0 0 0 0 0 0 0 0 0 0 0 0 0 0 0 0 0 0 0.38 0"/>
        </filter>
        <path id="s" d="M14 6v7a3 3 0 0 1-3 3H9a2 2 0 0 1-2-2 2 2 0 0 0-2-2H3a3 3 0 0 1-3-3V6a3 3 0 0 1 3-3h8a3 3 0 0 1 3 3z"/>
    </defs>
    <g fill="none" fill-rule="evenodd">
        <g transform="translate(17 28)">
            <use fill="#DADADA" xlink:href="#a"/>
            <use fill="#000" filter="url(#b)" xlink:href="#a"/>
        </g>
        <g transform="translate(17 28)">
            <use fill="#595959" xlink:href="#c"/>
            <use fill="#000" filter="url(#d)" xlink:href="#c"/>
            <path stroke="#000" stroke-opacity=".12" d="M15.5 46.5v3h55v-3h-55z"/>
        </g>
        <g transform="translate(17 28)">
            <use fill="#595959" xlink:href="#e"/>
            <use fill="#000" filter="url(#f)" xlink:href="#e"/>
            <path stroke="#000" stroke-opacity=".12" d="M26.5 12.5h33v21h-33z"/>
        </g>
        <g transform="translate(17 28)">
            <use fill="#595959" xlink:href="#g"/>
            <path stroke="#000" stroke-opacity=".12" d="M14.5.5h57v11h-57z"/>
        </g>
        <g transform="translate(17 28)">
            <use fill="#E7CF6A" xlink:href="#h"/>
            <path stroke="#000" stroke-opacity=".5" d="M.5 38.5v7h85v-7H.5z"/>
        </g>
        <g transform="translate(17 28)">
            <use fill="#E7CF6A" xlink:href="#i"/>
            <path stroke="#000" stroke-opacity=".5" d="M43 19.554L3.213 38.5h79.574L43 19.554z"/>
        </g>
        <g transform="translate(17 28)">
            <use fill="#E7CF6A" xlink:href="#j"/>
            <path stroke="#000" stroke-opacity=".5" d="M.5 16.5h7v22h-7z"/>
        </g>
        <g transform="translate(17 28)">
            <use fill="#E7CF6A" xlink:href="#k"/>
            <path stroke="#000" stroke-opacity=".5" d="M2.5 12.5h3v4h-3z"/>
        </g>
        <g transform="translate(17 28)">
            <use fill="#E7CF6A" xlink:href="#l"/>
            <path stroke="#000" stroke-opacity=".5" d="M78.5 16.5h7v22h-7z"/>
        </g>
        <g transform="translate(17 28)">
            <use fill="#E7CF6A" xlink:href="#m"/>
            <path stroke="#000" stroke-opacity=".5" d="M80.5 12.5h3v4h-3z"/>
        </g>
        <g transform="translate(18 10)">
            <use fill="#DADADA" xlink:href="#n"/>
            <path stroke="#414141" d="M13.5 18.5v12h57v-12h-57z"/>
            <path fill="#414141" d="M14 20h56v1H14zM14 22h56v1H14zM14 24h56v1H14zM14 26h56v1H14zM14 28h56v1H14z"/>
            <circle cx="3.5" cy="21.5" r="3.5" fill="#414141"/>
            <circle cx="80.5" cy="21.5" r="3.5" fill="#414141"/>
            <path fill="#414141" d="M2 18h16v1H2zM66 18h16v1H66z"/>
            <use fill="#DADADA" xlink:href="#o"/>
            <use fill="#000" filter="url(#p)" xlink:href="#o"/>
            <path stroke="#414141" d="M41.5 12.5v4h8v-10h-3.14l-2 6H41.5z"/>
            <g transform="matrix(-1 0 0 1 73 0)">
                <use fill="#DADADA" xlink:href="#q"/>
                <use fill="#000" filter="url(#r)" xlink:href="#q"/>
                <path stroke="#414141" d="M32.5 12.5v4h8v-10h-3.14l-2 6H32.5z"/>
            </g>
            <g transform="translate(17)">
                <path fill="#000" d="M23 3h2v19h-2z"/>
                <rect width="4" height="5" x="22" fill="#000" rx="2"/>
                <path fill="#000" d="M7 1l17 1v1L7 2z"/>
                <rect width="4" height="7" x="22" y="15" fill="#000" rx="2"/>
                <use fill="#DADADA" xlink:href="#s"/>
                <path stroke="#414141" d="M13.5 6A2.5 2.5 0 0 0 11 3.5H3A2.5 2.5 0 0 0 .5 6v3A2.5 2.5 0 0 0 3 11.5h2A2.5 2.5 0 0 1 7.5 14 1.5 1.5 0 0 0 9 15.5h2a2.5 2.5 0 0 0 2.5-2.5V6z"/>
                <rect width="5" height="2" x="8" y="16" fill="#000" rx="1"/>
            </g>
        </g>
    </g>
</svg>
