<svg xmlns="http://www.w3.org/2000/svg" xmlns:xlink="http://www.w3.org/1999/xlink" width="100" height="100" viewBox="0 0 100 100">
    <defs>
        <path id="a" d="M34 12h32v16H34z"/>
        <path id="b" d="M8 49h22v4H8z"/>
        <path id="c" d="M70 49h22v4H70z"/>
        <path id="d" d="M12 52l8 38h60l8-38H71L56 79H44L29 52z"/>
        <path id="e" d="M22 52l15 33h26l15-33h-7L56 79H44L29 52z"/>
    </defs>
    <g fill="none" fill-rule="evenodd">
        <g>
            <use fill="#635A8C" xlink:href="#a"/>
            <path stroke="#000" stroke-opacity=".32" d="M34.5 12.5h31v15h-31z"/>
        </g>
        <path fill="#000" d="M46 28h8v3h-8z"/>
        <g>
            <use fill="#BFBBB5" xlink:href="#b"/>
            <path stroke="#000" stroke-opacity=".32" d="M8.5 49.5h21v3h-21z"/>
        </g>
        <g>
            <use fill="#BFBBB5" xlink:href="#c"/>
            <path stroke="#000" stroke-opacity=".32" d="M70.5 49.5h21v3h-21z"/>
        </g>
        <g>
            <use fill="#BFBBB5" xlink:href="#d"/>
            <path stroke="#000" stroke-opacity=".32" d="M12.616 52.5l7.79 37h59.188l7.79-37h-16.09l-15 27H43.706l-15-27h-16.09z"/>
        </g>
        <g>
            <use fill="#EAEAE2" xlink:href="#e"/>
            <path stroke="#000" stroke-opacity=".32" d="M22.777 52.5l14.545 32h25.356l14.545-32h-5.929l-15 27H43.706l-15-27h-5.93z"/>
        </g>
        <path fill="#D9582B" d="M49 31h2v48h-2z"/>
    </g>
</svg>
