<svg xmlns="http://www.w3.org/2000/svg" width="80" height="64" viewBox="0 0 80 64">
    <g fill="none" fill-rule="evenodd">
        <path fill="#9FA0A5" stroke="#414141" d="M1 34h74v3H1"/>
        <path fill="#414141" d="M74.5 34h1v7h-1zM69 37h1v4h-1zM63 37h1v4h-1zM57 37h1v4h-1zM51 37h1v4h-1zM45 37h1v4h-1zM39 37h1v4h-1zM33 37h1v4h-1zM27 37h1v4h-1zM21 37h1v4h-1zM16 37h1v4h-1zM11 37h1v4h-1z"/>
        <path fill="#414141" d="M9 34h4v4H9z"/>
        <g>
            <path fill="#FFF" d="M38 16h5v19.044A6.001 6.001 0 0 1 46.48 41H34.52A6.001 6.001 0 0 1 38 35.044V16z"/>
            <path fill="#ED3209" d="M34.52 41A6.001 6.001 0 0 1 38 35.044V23h5v12.044A6.001 6.001 0 0 1 46.48 41H34.52z"/>
            <path stroke="#414141" d="M42.5 16.5h-4v18.865l-.291.133A5.5 5.5 0 0 0 35 40.5h11a5.5 5.5 0 0 0-3.209-5.002l-.291-.133V16.5z"/>
        </g>
    </g>
</svg>
