<svg xmlns="http://www.w3.org/2000/svg" xmlns:xlink="http://www.w3.org/1999/xlink" width="100" height="100" viewBox="0 0 100 100">
    <defs>
        <!-- <circle id="a" cx="16" cy="77" r="8"/> -->
    </defs>
    <g fill="none" fill-rule="evenodd" transform="translate(0 7)">
        <path fill="#3CA6E8" d="M71 70L58 85l9.02 1.412L69.72 91H98V81L87.402 70.606z"/>
        <path fill="#3195D4" d="M71 70L58 85l9.02 1.412L76 70z"/>
        <path stroke="#2B83BA" stroke-linecap="square" d="M67.17 86.083L74.5 72.5M81.5 72.5l4.856 19.86"/>
        <path fill="#D5D5D5" d="M.48 42.749l25.576-11.735V19.361c1.755 4.427 6.715 6.641 14.88 6.641 8.164 0 13.538-1.859 16.122-5.576L98.894.54v18.117L65.037 34.928c11.317 4.565 17.504 7.026 18.561 7.385 1.586.537 3.564 3.292 3.564 6.664V70.26c-1.272 1.839-3.633 2.758-7.082 2.758-5.174 0-7.152-1.14-8.003-1.672-.85-.532-1.12-.158-1.192-4.134-.072-3.976.145-8.058.073-9.427-.073-1.37-.818-3.097-3.91-4.054-2.063-.638-5.393-1.87-9.99-3.695v2.597c0 .411-2.52 6.285-15.425 6.285-12.904 0-15.241-5.22-15.577-5.988-.223-.512-.223-1.733 0-3.664L.48 60.975V42.75z"/>
        <path stroke="#979797" d="M26 19.093v11.638m0 18.425V52c0 3.866 6.94 7 15.5 7 8.56 0 15.5-3.134 15.5-7v-1.497m0-18.45V18.789"/>
        <ellipse cx="41.5" cy="19" stroke="#979797" rx="15.5" ry="7"/>
        <path stroke="#979797" d="M1 60.486L28.5 48c3.267-1.386 5.5-4.03 5.5-9s-2.462-9-5.5-9L1 42.484M64.647 34.99c4.51-2.061 13.86-6.954 34.051-16.677M99.354.441L57 20.484M71 70.344V58.242a4 4 0 0 0-2.565-3.734L51.5 48c-3.267-1.386-5.5-4.03-5.5-9s2.462-9 5.5-9l30.346 11.553A8 8 0 0 1 87 49.029v21.107"/>
        <path stroke="#979797" d="M71 70c0 1.657 3.582 3 8 3s8-1.343 8-3"/>
        <path stroke="#979797" stroke-linecap="square" d="M27.5 22.5v7.819m0 18.325V54.5M29.5 24v6.031m0 17.6v8.606M31.5 25v6.236m0 14.937v10.843M33.5 25.18v9.533m0 8.634V57.3M35.5 26v32.016M37.5 26.18V58.3M39.5 26v32.016M41.5 26.18V58.3M43.5 26.18V58.3M55.5 22.18v9.157m0 18.373v4.59M53.5 24.18v6.444m0 18.706v6.7"/>
        <!-- <use fill="#48CB3C" xlink:href="#a"/> -->
        <!-- <circle cx="16" cy="77" r="7.5" stroke="#000" stroke-opacity=".4"/> -->
    </g>
</svg>
