<svg xmlns="http://www.w3.org/2000/svg" xmlns:xlink="http://www.w3.org/1999/xlink" width="100" height="84" viewBox="0 0 100 84">
    <defs>
        <path id="a" d="M84 16l6-6v64l-6-6z"/>
        <path id="b" d="M10 16l6-6v64l-6-6z"/>
    </defs>
    <g fill="none" fill-rule="evenodd">
        <g fill="#BFBBB5">
            <path d="M81 42h2v2h-2zM78 45h2v2h-2zM75 41h2v2h-2zM79 48h2v2h-2zM78 51h2v2h-2zM75 53h2v2h-2zM75 57h2v2h-2zM81 56h2v2h-2zM79 58h2v2h-2zM76 62h2v2h-2zM79 64h2v2h-2zM76 66h2v2h-2zM81 46h2v2h-2zM75 47h2v2h-2zM76 45h1v1h-1zM80 42h1v1h-1zM78 43h1v1h-1zM81 45h1v1h-1zM77 49h1v1h-1zM75 51h1v1h-1zM82 51h1v1h-1zM81 52h1v1h-1zM82 53h1v1h-1zM80 55h1v1h-1zM79 54h1v1h-1zM76 55h1v1h-1zM78 55h1v1h-1zM78 57h1v1h-1zM73 56h1v1h-1zM73 63h1v1h-1zM82 59h1v1h-1zM74 67h1v1h-1zM79 67h1v1h-1zM74 64h1v1h-1zM81 61h1v1h-1zM82 63h1v1h-1zM82 65h1v1h-1zM82 67h1v1h-1zM77 60h1v1h-1zM74 59h1v1h-1zM73 61h1v1h-1zM79 62h1v1h-1zM81 14h2v2h-2zM78 17h2v2h-2zM75 13h2v2h-2zM79 20h2v2h-2zM78 23h2v2h-2zM75 25h2v2h-2zM75 29h2v2h-2zM81 28h2v2h-2zM79 30h2v2h-2zM76 34h2v2h-2zM79 36h2v2h-2zM76 38h2v2h-2zM81 18h2v2h-2zM75 19h2v2h-2zM76 17h1v1h-1zM80 14h1v1h-1zM78 15h1v1h-1zM81 17h1v1h-1zM77 21h1v1h-1zM75 23h1v1h-1zM82 23h1v1h-1zM81 24h1v1h-1zM82 25h1v1h-1zM80 27h1v1h-1zM79 26h1v1h-1zM76 27h1v1h-1zM78 27h1v1h-1zM78 29h1v1h-1zM73 28h1v1h-1zM73 35h1v1h-1zM82 31h1v1h-1zM74 39h1v1h-1zM79 39h1v1h-1zM74 36h1v1h-1zM81 33h1v1h-1zM82 35h1v1h-1zM82 39h1v1h-1zM77 32h1v1h-1zM74 31h1v1h-1zM73 33h1v1h-1zM79 34h1v1h-1zM19 42h-2v2h2zM22 45h-2v2h2zM25 41h-2v2h2zM21 48h-2v2h2zM22 51h-2v2h2zM25 53h-2v2h2zM25 57h-2v2h2zM19 56h-2v2h2zM21 58h-2v2h2zM24 62h-2v2h2zM21 64h-2v2h2zM24 66h-2v2h2zM19 46h-2v2h2zM25 47h-2v2h2zM24 45h-1v1h1zM20 42h-1v1h1zM22 43h-1v1h1zM19 45h-1v1h1zM23 49h-1v1h1zM25 51h-1v1h1zM18 51h-1v1h1zM19 52h-1v1h1zM18 53h-1v1h1zM20 55h-1v1h1zM21 54h-1v1h1zM24 55h-1v1h1zM22 55h-1v1h1zM22 57h-1v1h1zM27 56h-1v1h1zM27 63h-1v1h1zM18 59h-1v1h1zM26 67h-1v1h1zM21 67h-1v1h1zM26 64h-1v1h1zM27 65h-1v1h1zM19 61h-1v1h1zM18 63h-1v1h1zM17 65h-1v1h1zM18 67h-1v1h1zM23 60h-1v1h1zM26 59h-1v1h1zM27 61h-1v1h1zM21 62h-1v1h1zM19 14h-2v2h2zM22 17h-2v2h2zM25 13h-2v2h2zM21 20h-2v2h2zM22 23h-2v2h2zM25 25h-2v2h2zM25 29h-2v2h2zM19 28h-2v2h2zM21 30h-2v2h2zM24 34h-2v2h2zM21 36h-2v2h2zM24 38h-2v2h2zM19 18h-2v2h2zM25 19h-2v2h2zM24 17h-1v1h1zM20 14h-1v1h1zM22 15h-1v1h1zM19 17h-1v1h1zM23 21h-1v1h1zM25 23h-1v1h1zM18 23h-1v1h1zM19 24h-1v1h1zM18 25h-1v1h1zM20 27h-1v1h1zM21 26h-1v1h1zM24 27h-1v1h1zM22 27h-1v1h1zM22 29h-1v1h1zM27 28h-1v1h1zM27 35h-1v1h1zM18 31h-1v1h1zM26 39h-1v1h1zM21 39h-1v1h1zM26 36h-1v1h1zM19 33h-1v1h1zM18 35h-1v1h1zM18 39h-1v1h1zM23 32h-1v1h1zM26 31h-1v1h1zM27 33h-1v1h1zM21 34h-1v1h1z"/>
            <g>
                <path d="M29 42h-2v2h2zM32 45h-2v2h2zM35 41h-2v2h2zM31 48h-2v2h2zM32 51h-2v2h2zM35 53h-2v2h2zM35 57h-2v2h2zM29 56h-2v2h2zM31 58h-2v2h2zM34 62h-2v2h2zM31 64h-2v2h2zM34 66h-2v2h2zM29 46h-2v2h2zM35 47h-2v2h2zM34 45h-1v1h1zM30 42h-1v1h1zM32 43h-1v1h1zM29 45h-1v1h1zM33 49h-1v1h1zM35 51h-1v1h1zM28 51h-1v1h1zM29 52h-1v1h1zM28 53h-1v1h1zM30 55h-1v1h1zM31 54h-1v1h1zM34 55h-1v1h1zM32 55h-1v1h1zM32 57h-1v1h1zM37 56h-1v1h1zM37 63h-1v1h1zM28 59h-1v1h1zM36 67h-1v1h1zM31 67h-1v1h1zM36 64h-1v1h1zM37 65h-1v1h1zM29 61h-1v1h1zM28 63h-1v1h1zM28 67h-1v1h1zM33 60h-1v1h1zM36 59h-1v1h1zM37 61h-1v1h1zM31 62h-1v1h1zM29 14h-2v2h2zM32 17h-2v2h2zM35 13h-2v2h2zM31 20h-2v2h2zM32 23h-2v2h2zM35 25h-2v2h2zM35 29h-2v2h2zM29 28h-2v2h2zM31 30h-2v2h2zM34 34h-2v2h2zM31 36h-2v2h2zM34 38h-2v2h2zM29 18h-2v2h2zM35 19h-2v2h2zM34 17h-1v1h1zM30 14h-1v1h1zM32 15h-1v1h1zM29 17h-1v1h1zM33 21h-1v1h1zM35 23h-1v1h1zM28 23h-1v1h1zM29 24h-1v1h1zM28 25h-1v1h1zM30 27h-1v1h1zM31 26h-1v1h1zM34 27h-1v1h1zM32 27h-1v1h1zM32 29h-1v1h1zM37 28h-1v1h1zM37 35h-1v1h1zM28 31h-1v1h1zM36 39h-1v1h1zM31 39h-1v1h1zM36 36h-1v1h1zM29 33h-1v1h1zM28 35h-1v1h1zM28 39h-1v1h1zM33 32h-1v1h1zM36 31h-1v1h1zM37 33h-1v1h1zM31 34h-1v1h1z"/>
            </g>
            <g>
                <path d="M39 42h-2v2h2zM42 45h-2v2h2zM45 41h-2v2h2zM41 48h-2v2h2zM42 51h-2v2h2zM45 53h-2v2h2zM45 57h-2v2h2zM39 56h-2v2h2zM41 58h-2v2h2zM44 62h-2v2h2zM41 64h-2v2h2zM44 66h-2v2h2zM39 46h-2v2h2zM45 47h-2v2h2zM44 45h-1v1h1zM40 42h-1v1h1zM42 43h-1v1h1zM39 45h-1v1h1zM43 49h-1v1h1zM45 51h-1v1h1zM38 51h-1v1h1zM39 52h-1v1h1zM38 53h-1v1h1zM40 55h-1v1h1zM41 54h-1v1h1zM44 55h-1v1h1zM42 55h-1v1h1zM42 57h-1v1h1zM47 56h-1v1h1zM47 63h-1v1h1zM38 59h-1v1h1zM46 67h-1v1h1zM41 67h-1v1h1zM46 64h-1v1h1zM39 61h-1v1h1zM38 63h-1v1h1zM38 67h-1v1h1zM43 60h-1v1h1zM46 59h-1v1h1zM47 61h-1v1h1zM41 62h-1v1h1zM39 14h-2v2h2zM42 17h-2v2h2zM45 13h-2v2h2zM41 20h-2v2h2zM42 23h-2v2h2zM45 25h-2v2h2zM45 29h-2v2h2zM39 28h-2v2h2zM41 30h-2v2h2zM44 34h-2v2h2zM41 36h-2v2h2zM44 38h-2v2h2zM39 18h-2v2h2zM45 19h-2v2h2zM44 17h-1v1h1zM40 14h-1v1h1zM42 15h-1v1h1zM39 17h-1v1h1zM43 21h-1v1h1zM45 23h-1v1h1zM38 23h-1v1h1zM39 24h-1v1h1zM38 25h-1v1h1zM40 27h-1v1h1zM41 26h-1v1h1zM44 27h-1v1h1zM42 27h-1v1h1zM42 29h-1v1h1zM47 28h-1v1h1zM47 35h-1v1h1zM38 31h-1v1h1zM46 39h-1v1h1zM41 39h-1v1h1zM46 36h-1v1h1zM39 33h-1v1h1zM38 35h-1v1h1zM38 39h-1v1h1zM43 32h-1v1h1zM46 31h-1v1h1zM47 33h-1v1h1zM41 34h-1v1h1z"/>
            </g>
            <g>
                <path d="M49 42h-2v2h2zM52 45h-2v2h2zM55 41h-2v2h2zM51 48h-2v2h2zM52 51h-2v2h2zM55 53h-2v2h2zM55 57h-2v2h2zM49 56h-2v2h2zM51 58h-2v2h2zM54 62h-2v2h2zM51 64h-2v2h2zM54 66h-2v2h2zM49 46h-2v2h2zM55 47h-2v2h2zM54 45h-1v1h1zM50 42h-1v1h1zM52 43h-1v1h1zM49 45h-1v1h1zM53 49h-1v1h1zM55 51h-1v1h1zM48 51h-1v1h1zM49 52h-1v1h1zM48 53h-1v1h1zM50 55h-1v1h1zM51 54h-1v1h1zM54 55h-1v1h1zM52 55h-1v1h1zM52 57h-1v1h1zM57 56h-1v1h1zM57 63h-1v1h1zM48 59h-1v1h1zM56 67h-1v1h1zM51 67h-1v1h1zM56 64h-1v1h1zM49 61h-1v1h1zM48 63h-1v1h1zM48 67h-1v1h1zM53 60h-1v1h1zM56 59h-1v1h1zM57 61h-1v1h1zM51 62h-1v1h1zM49 14h-2v2h2zM52 17h-2v2h2zM55 13h-2v2h2zM51 20h-2v2h2zM52 23h-2v2h2zM55 25h-2v2h2zM55 29h-2v2h2zM49 28h-2v2h2zM51 30h-2v2h2zM54 34h-2v2h2zM51 36h-2v2h2zM54 38h-2v2h2zM49 18h-2v2h2zM55 19h-2v2h2zM54 17h-1v1h1zM50 14h-1v1h1zM52 15h-1v1h1zM49 17h-1v1h1zM53 21h-1v1h1zM55 23h-1v1h1zM48 23h-1v1h1zM49 24h-1v1h1zM48 25h-1v1h1zM50 27h-1v1h1zM51 26h-1v1h1zM54 27h-1v1h1zM52 27h-1v1h1zM52 29h-1v1h1zM57 28h-1v1h1zM57 35h-1v1h1zM48 31h-1v1h1zM56 39h-1v1h1zM51 39h-1v1h1zM56 36h-1v1h1zM49 33h-1v1h1zM48 35h-1v1h1zM48 39h-1v1h1zM53 32h-1v1h1zM56 31h-1v1h1zM57 33h-1v1h1zM51 34h-1v1h1z"/>
            </g>
            <g>
                <path d="M59 42h-2v2h2zM62 45h-2v2h2zM65 41h-2v2h2zM61 48h-2v2h2zM62 51h-2v2h2zM65 53h-2v2h2zM65 57h-2v2h2zM59 56h-2v2h2zM61 58h-2v2h2zM64 62h-2v2h2zM61 64h-2v2h2zM64 66h-2v2h2zM59 46h-2v2h2zM65 47h-2v2h2zM64 45h-1v1h1zM60 42h-1v1h1zM62 43h-1v1h1zM59 45h-1v1h1zM63 49h-1v1h1zM65 51h-1v1h1zM58 51h-1v1h1zM59 52h-1v1h1zM58 53h-1v1h1zM60 55h-1v1h1zM61 54h-1v1h1zM64 55h-1v1h1zM62 55h-1v1h1zM62 57h-1v1h1zM67 56h-1v1h1zM67 63h-1v1h1zM58 59h-1v1h1zM66 67h-1v1h1zM61 67h-1v1h1zM66 64h-1v1h1zM59 61h-1v1h1zM58 63h-1v1h1zM58 67h-1v1h1zM63 60h-1v1h1zM66 59h-1v1h1zM67 61h-1v1h1zM61 62h-1v1h1zM59 14h-2v2h2zM62 17h-2v2h2zM65 13h-2v2h2zM61 20h-2v2h2zM62 23h-2v2h2zM65 25h-2v2h2zM65 29h-2v2h2zM59 28h-2v2h2zM61 30h-2v2h2zM64 34h-2v2h2zM61 36h-2v2h2zM64 38h-2v2h2zM59 18h-2v2h2zM65 19h-2v2h2zM64 17h-1v1h1zM60 14h-1v1h1zM62 15h-1v1h1zM59 17h-1v1h1zM63 21h-1v1h1zM65 23h-1v1h1zM66 16h-1v1h1zM58 23h-1v1h1zM59 24h-1v1h1zM58 25h-1v1h1zM60 27h-1v1h1zM61 26h-1v1h1zM64 27h-1v1h1zM62 27h-1v1h1zM62 29h-1v1h1zM67 28h-1v1h1zM67 35h-1v1h1zM58 31h-1v1h1zM66 39h-1v1h1zM61 39h-1v1h1zM66 36h-1v1h1zM59 33h-1v1h1zM58 35h-1v1h1zM58 39h-1v1h1zM63 32h-1v1h1zM66 31h-1v1h1zM67 33h-1v1h1zM61 34h-1v1h1z"/>
            </g>
            <g>
                <path d="M68 42h-2v2h2zM71 45h-2v2h2zM74 41h-2v2h2zM70 48h-2v2h2zM71 51h-2v2h2zM74 53h-2v2h2zM74 57h-2v2h2zM68 56h-2v2h2zM70 58h-2v2h2zM73 62h-2v2h2zM70 64h-2v2h2zM73 66h-2v2h2zM68 46h-2v2h2zM74 47h-2v2h2zM73 45h-1v1h1zM69 42h-1v1h1zM71 43h-1v1h1zM68 45h-1v1h1zM72 49h-1v1h1zM74 51h-1v1h1zM67 51h-1v1h1zM68 52h-1v1h1zM67 53h-1v1h1zM69 55h-1v1h1zM70 54h-1v1h1zM73 55h-1v1h1zM71 55h-1v1h1zM71 57h-1v1h1zM76 56h-1v1h1zM76 63h-1v1h1zM67 59h-1v1h1zM75 67h-1v1h1zM70 67h-1v1h1zM75 64h-1v1h1zM68 61h-1v1h1zM67 63h-1v1h1zM67 67h-1v1h1zM72 60h-1v1h1zM75 59h-1v1h1zM76 61h-1v1h1zM70 62h-1v1h1zM68 14h-2v2h2zM71 17h-2v2h2zM74 13h-2v2h2zM70 20h-2v2h2zM71 23h-2v2h2zM74 25h-2v2h2zM74 29h-2v2h2zM68 28h-2v2h2zM70 30h-2v2h2zM73 34h-2v2h2zM70 36h-2v2h2zM73 38h-2v2h2zM68 18h-2v2h2zM74 19h-2v2h2zM73 17h-1v1h1zM69 14h-1v1h1zM71 15h-1v1h1zM68 17h-1v1h1zM72 21h-1v1h1zM74 23h-1v1h1zM67 23h-1v1h1zM68 24h-1v1h1zM67 25h-1v1h1zM69 27h-1v1h1zM70 26h-1v1h1zM73 27h-1v1h1zM71 27h-1v1h1zM71 29h-1v1h1zM76 28h-1v1h1zM76 35h-1v1h1zM67 31h-1v1h1zM75 39h-1v1h1zM70 39h-1v1h1zM75 36h-1v1h1zM68 33h-1v1h1zM67 35h-1v1h1zM67 39h-1v1h1zM72 32h-1v1h1zM75 31h-1v1h1zM76 33h-1v1h1zM70 34h-1v1h1z"/>
            </g>
        </g>
        <path stroke="#979797" d="M10.5 10.5h79v63h-79z"/>
        <g>
            <use fill="#FFF" xlink:href="#a"/>
            <path stroke="#979797" d="M84.5 16.207v51.586l5 5V11.207l-5 5z"/>
        </g>
        <g transform="matrix(-1 0 0 1 26 0)">
            <use fill="#8D8B8C" xlink:href="#b"/>
            <path stroke="#979797" d="M10.5 16.207v51.586l5 5V11.207l-5 5z"/>
        </g>
        <path fill="#D5D5D5" d="M16 16l-5-5h78l-5 5zM16 68l-5 5h78l-5-5z"/>
        <path stroke="#979797" stroke-linecap="square" d="M15.5 16.5h68.007M15.5 67.5h68.007"/>
    </g>
</svg>
