<svg xmlns="http://www.w3.org/2000/svg" xmlns:xlink="http://www.w3.org/1999/xlink" width="100" height="100" viewBox="0 0 100 100">
    <defs>
        <path id="a" d="M3 48h20v11a6 6 0 0 1-6 6H9a6 6 0 0 1-6-6V48z"/>
        <path id="b" d="M24 27v20.346C20.117 49.116 16.487 50 13.11 50 9.733 50 6.363 49.115 3 47.346V27"/>
        <path id="c" d="M0 44c4.585 1.867 9.118 2.8 13.6 2.8 4.481 0 8.948-.933 13.4-2.8v4.2c-4.453 1.867-8.935 2.8-13.445 2.8S4.526 50.067 0 48.2V44z"/>
        <path id="d" d="M4 57h24v14a6 6 0 0 1-6 6H10a6 6 0 0 1-6-6V57z"/>
        <path id="e" d="M28 32v23.884C23.377 57.961 19.055 59 15.035 59S7.003 57.961 3 55.884V32"/>
        <path id="f" d="M0 52c5.434 2.133 10.807 3.2 16.118 3.2C21.43 55.2 26.723 54.133 32 52v4.8C26.722 58.933 21.41 60 16.065 60 10.72 60 5.365 58.933 0 56.8V52z"/>
        <path id="g" d="M5 66h27v16a6 6 0 0 1-6 6H11a6 6 0 0 1-6-6V66z"/>
        <path id="h" d="M33 37.06V64c-5.363 2.343-10.376 3.515-15.04 3.515-4.662 0-9.316-1.172-13.96-3.515V37.06"/>
        <path id="i" d="M0 61c6.283 2.667 12.496 4 18.637 4 6.14 0 12.262-1.333 18.363-4v6c-6.103 2.667-12.244 4-18.425 4C12.395 71 6.203 69.667 0 67v-6z"/>
    </defs>
    <g fill="none" fill-rule="evenodd">
        <path fill="#5E5E5E" d="M84.5 27l4-13 4 13z"/>
        <path stroke="#5E5E5E" stroke-linecap="square" d="M88.5 24.5v63.008"/>
        <g transform="translate(11 7)">
            <use fill="#F9F9F9" xlink:href="#a"/>
            <path stroke="#5E5E5E" d="M3.5 48.5V59A5.5 5.5 0 0 0 9 64.5h8a5.5 5.5 0 0 0 5.5-5.5V48.5h-19z"/>
        </g>
        <g transform="translate(11 7)">
            <use fill="#858585" xlink:href="#b"/>
            <path stroke="#5E5E5E" d="M23.5 27.5h-20v19.542c3.204 1.64 6.406 2.458 9.61 2.458 3.216 0 6.68-.824 10.39-2.477V27.5z"/>
        </g>
        <g transform="translate(11 7)">
            <use fill="#9FA0A5" xlink:href="#c"/>
            <path stroke="#5E5E5E" d="M.5 44.737v3.127C4.863 49.622 9.214 50.5 13.555 50.5c4.34 0 8.653-.877 12.945-2.634v-3.122c-4.283 1.703-8.584 2.556-12.9 2.556-4.323 0-8.69-.855-13.1-2.563z"/>
        </g>
        <path fill="#E1E0CE" stroke="#5E5E5E" d="M38 7v26.77C33.862 35.255 29.484 36 24.865 36s-9.24-.744-13.865-2.23V7"/>
        <g>
            <g transform="translate(27 7)">
                <use fill="#F9F9F9" xlink:href="#d"/>
                <path stroke="#5E5E5E" d="M4.5 57.5V71a5.5 5.5 0 0 0 5.5 5.5h12a5.5 5.5 0 0 0 5.5-5.5V57.5h-23z"/>
            </g>
            <g transform="translate(27 7)">
                <use fill="#858585" xlink:href="#e"/>
                <path stroke="#5E5E5E" d="M27.5 32.5h-24v23.079c3.844 1.949 7.688 2.921 11.535 2.921 3.86 0 8.015-.979 12.465-2.94V32.5z"/>
            </g>
            <g transform="translate(27 7)">
                <use fill="#9FA0A5" xlink:href="#f"/>
                <path stroke="#5E5E5E" d="M.5 52.728v3.732c5.201 2.027 10.389 3.04 15.565 3.04 5.175 0 10.319-1.012 15.435-3.038v-3.727C26.392 54.711 21.264 55.7 16.118 55.7c-5.152 0-10.36-.991-15.618-2.972z"/>
            </g>
            <path fill="#E1E0CE" stroke="#5E5E5E" d="M59 7v31.385C54.096 40.128 48.907 41 43.432 41c-5.474 0-10.951-.872-16.432-2.615V7"/>
        </g>
        <g>
            <g transform="translate(42 7)">
                <use fill="#F9F9F9" xlink:href="#g"/>
                <path stroke="#5E5E5E" d="M5.5 66.5V82a5.5 5.5 0 0 0 5.5 5.5h15a5.5 5.5 0 0 0 5.5-5.5V66.5h-26z"/>
            </g>
            <g transform="translate(42 7)">
                <use fill="#858585" xlink:href="#h"/>
                <path stroke="#5E5E5E" d="M32.5 37.56h-28v26.13c4.484 2.218 8.97 3.325 13.46 3.325 4.504 0 9.35-1.113 14.54-3.343V37.56z"/>
            </g>
            <g transform="translate(42 7)">
                <use fill="#9FA0A5" xlink:href="#i"/>
                <path stroke="#5E5E5E" d="M.5 61.75v4.92c6.04 2.554 12.064 3.83 18.075 3.83 6.01 0 11.983-1.275 17.925-3.828v-4.914C30.569 64.252 24.613 65.5 18.637 65.5c-5.984 0-12.03-1.25-18.137-3.75z"/>
            </g>
            <path fill="#E1E0CE" stroke="#5E5E5E" d="M79 7v36c-5.67 2-11.67 3-18 3s-12.663-1-19-3V7"/>
        </g>
    </g>
</svg>
