<svg xmlns="http://www.w3.org/2000/svg" width="100" height="100" viewBox="0 0 100 100">
    <g fill="none" fill-rule="evenodd">
        <path fill="#F9F9F9" stroke="#5E5E5E" d="M51 1v55c0 5.523-4.477 10-10 10s-10-4.477-10-10V1"/>
        <path fill="#F1F1E8" stroke="#5E5E5E" d="M64 1v57.247a11 11 0 0 1-3.461 8.01L47 79l.215-12 .61-.422A12 12 0 0 0 53 56.708V1"/>
        <path fill="#5E5E5E" d="M86.5 18l4-13 4 13zM86.5 80l4 13 4-13z"/>
        <path stroke="#5E5E5E" stroke-linecap="square" d="M90 16v23.008M90 44v36.518"/>
        <path fill="#F1F1E8" stroke="#5E5E5E" d="M18 1v57.247a11 11 0 0 0 3.461 8.01L35 79l-.215-12-.61-.422A12 12 0 0 1 29 56.708V1"/>
    </g>
</svg>
