<svg xmlns="http://www.w3.org/2000/svg" xmlns:xlink="http://www.w3.org/1999/xlink" width="100" height="100" viewBox="0 0 100 100">
    <defs>
        <path id="a" d="M0 19L37 0l58 18v12L37 12 0 32z"/>
        <path id="b" d="M0 30l37-19 58 18v16L37 27 0 47z"/>
        <circle id="c" cx="6.5" cy="34.5" r="2.5"/>
        <circle id="d" cx="16.5" cy="29.5" r="2.5"/>
        <circle id="e" cx="26.5" cy="24.5" r="2.5"/>
        <circle id="f" cx="36.5" cy="19.5" r="2.5"/>
        <circle id="g" cx="46.5" cy="21.5" r="2.5"/>
        <circle id="h" cx="56.5" cy="24.5" r="2.5"/>
        <circle id="i" cx="66.5" cy="28.5" r="2.5"/>
        <circle id="j" cx="76.5" cy="31.5" r="2.5"/>
        <circle id="k" cx="86.5" cy="34.5" r="2.5"/>
    </defs>
    <g fill="none" fill-rule="evenodd">
        <path stroke="#000" stroke-opacity=".5" d="M8 87h12v-8h12v8h12.002v-8H56v8h12.031v-8H80v8h12"/>
        <g transform="translate(2 15)">
            <use fill="#D3D3D3" xlink:href="#a"/>
            <path stroke="#000" stroke-opacity=".419" d="M.5 19.305v11.856l36.447-19.7L94.5 29.32V18.368L37.047.538.5 19.305z"/>
        </g>
        <g transform="translate(2 15)">
            <use fill="#C1C1C1" xlink:href="#b"/>
            <path stroke="#000" stroke-opacity=".419" d="M.5 30.305v15.856l36.447-19.7L94.5 44.32V29.368l-57.453-17.83L.5 30.305z"/>
        </g>
        <g transform="translate(2 15)">
            <use fill="#C1C1C1" xlink:href="#c"/>
            <circle cx="6.5" cy="34.5" r="2" stroke="#000" stroke-opacity=".48"/>
        </g>
        <g transform="translate(2 15)">
            <use fill="#C1C1C1" xlink:href="#d"/>
            <circle cx="16.5" cy="29.5" r="2" stroke="#000" stroke-opacity=".48"/>
        </g>
        <g transform="translate(2 15)">
            <use fill="#C1C1C1" xlink:href="#e"/>
            <circle cx="26.5" cy="24.5" r="2" stroke="#000" stroke-opacity=".48"/>
        </g>
        <g transform="translate(2 15)">
            <use fill="#C1C1C1" xlink:href="#f"/>
            <circle cx="36.5" cy="19.5" r="2" stroke="#000" stroke-opacity=".48"/>
        </g>
        <g transform="translate(2 15)">
            <use fill="#C1C1C1" xlink:href="#g"/>
            <circle cx="46.5" cy="21.5" r="2" stroke="#000" stroke-opacity=".48"/>
        </g>
        <g transform="translate(2 15)">
            <use fill="#C1C1C1" xlink:href="#h"/>
            <circle cx="56.5" cy="24.5" r="2" stroke="#000" stroke-opacity=".48"/>
        </g>
        <g transform="translate(2 15)">
            <use fill="#C1C1C1" xlink:href="#i"/>
            <circle cx="66.5" cy="28.5" r="2" stroke="#000" stroke-opacity=".48"/>
        </g>
        <g transform="translate(2 15)">
            <use fill="#C1C1C1" xlink:href="#j"/>
            <circle cx="76.5" cy="31.5" r="2" stroke="#000" stroke-opacity=".48"/>
        </g>
        <g transform="translate(2 15)">
            <use fill="#C1C1C1" xlink:href="#k"/>
            <circle cx="86.5" cy="34.5" r="2" stroke="#000" stroke-opacity=".48"/>
        </g>
        <path fill="#C1C1C1" d="M2 46h1v14H2z"/>
        <path fill="#D3D3D3" d="M2 35h1v10H2zM96 34h1v10h-1z"/>
        <path fill="#C1C1C1" d="M96 45h1v14h-1z"/>
        <path fill="#A0124F" d="M18.5 45L23 56.556C22.946 59.519 21.446 61 18.5 61c-2.946 0-4.446-1.481-4.5-4.444L18.5 45zM58.5 40L63 51.556C62.946 54.519 61.446 56 58.5 56c-2.946 0-4.446-1.481-4.5-4.444L58.5 40zM88.5 50L93 61.556C92.946 64.519 91.446 66 88.5 66c-2.946 0-4.446-1.481-4.5-4.444L88.5 50zM38.5 35L43 46.556C42.946 49.519 41.446 51 38.5 51c-2.946 0-4.446-1.481-4.5-4.444L38.5 35z"/>
    </g>
</svg>
