<svg xmlns="http://www.w3.org/2000/svg" xmlns:xlink="http://www.w3.org/1999/xlink" width="100" height="100" viewBox="0 0 100 100">
    <defs>
        <path id="a" d="M0 0h100v100H0z"/>
        <filter id="b" width="102%" height="102%" x="-1%" y="-1%" filterUnits="objectBoundingBox">
            <feOffset dx="2" dy="2" in="SourceAlpha" result="shadowOffsetInner1"/>
            <feComposite in="shadowOffsetInner1" in2="SourceAlpha" k2="-1" k3="1" operator="arithmetic" result="shadowInnerInner1"/>
            <feColorMatrix in="shadowInnerInner1" result="shadowMatrixInner1" values="0 0 0 0 0.843776573 0 0 0 0 0.843776573 0 0 0 0 0.843776573 0 0 0 0.668478261 0"/>
            <feOffset dx="-2" dy="-2" in="SourceAlpha" result="shadowOffsetInner2"/>
            <feComposite in="shadowOffsetInner2" in2="SourceAlpha" k2="-1" k3="1" operator="arithmetic" result="shadowInnerInner2"/>
            <feColorMatrix in="shadowInnerInner2" result="shadowMatrixInner2" values="0 0 0 0 0.197650935 0 0 0 0 0.197650935 0 0 0 0 0.197650935 0 0 0 1 0"/>
            <feMerge>
                <feMergeNode in="shadowMatrixInner1"/>
                <feMergeNode in="shadowMatrixInner2"/>
            </feMerge>
        </filter>
        <circle id="c" cx="84" cy="16" r="8"/>
        <path id="d" d="M2 2h16v95H2z"/>
        <filter id="e" width="106.2%" height="101.1%" x="-3.1%" y="-.5%" filterUnits="objectBoundingBox">
            <feOffset dx="-1" in="SourceAlpha" result="shadowOffsetInner1"/>
            <feComposite in="shadowOffsetInner1" in2="SourceAlpha" k2="-1" k3="1" operator="arithmetic" result="shadowInnerInner1"/>
            <feColorMatrix in="shadowInnerInner1" values="0 0 0 0 0 0 0 0 0 0 0 0 0 0 0 0 0 0 0.48 0"/>
        </filter>
        <path id="f" d="M17 45h16v10H17z"/>
        <path id="g" d="M35.566 67.64C29.277 64.268 25 57.633 25 50c0-11.046 8.954-20 20-20 6.885 0 12.957 3.479 16.555 8.775l-25.99 28.864z"/>
        <path id="h" d="M40.23 31.997h6.399l5.961 38.894h-6.399z"/>
    </defs>
    <g fill="none" fill-rule="evenodd">
        <g>
            <use fill="#F9F9F9" xlink:href="#a"/>
            <use fill="#000" filter="url(#b)" xlink:href="#a"/>
            <path stroke="#000" stroke-opacity=".38" d="M.5.5h99v99H.5z"/>
        </g>
        <g>
            <use fill="#48CB3C" xlink:href="#c"/>
            <circle cx="84" cy="16" r="7.5" stroke="#000" stroke-opacity=".4"/>
        </g>
        <g>
            <use fill="#9FA0A5" xlink:href="#d"/>
            <use fill="#000" filter="url(#e)" xlink:href="#d"/>
        </g>
        <g>
            <use fill="#9FA0A5" xlink:href="#f"/>
            <path stroke="#000" stroke-opacity=".48" d="M17.5 45.5h15v9h-15z"/>
        </g>
        <g>
            <use fill="#D5D5D5" xlink:href="#g"/>
            <path stroke="#000" stroke-opacity=".4" d="M35.459 67.01l25.46-28.275A19.473 19.473 0 0 0 45 30.5c-10.77 0-19.5 8.73-19.5 19.5a19.492 19.492 0 0 0 9.959 17.01z"/>
        </g>
        <g>
            <use fill="#9FA0A5" xlink:href="#h"/>
            <path stroke="#000" stroke-opacity=".48" d="M57.326 34.977L32.031 63.784l3.463 4.127 25.295-28.807-3.463-4.127z"/>
        </g>
        <path fill="#F9F076" fill-opacity=".72" d="M35 68v29h63V42.99L62 39z"/>
    </g>
</svg>
