<svg xmlns="http://www.w3.org/2000/svg" xmlns:xlink="http://www.w3.org/1999/xlink" width="100" height="100" viewBox="0 0 100 100">
    <defs>
        <path id="a" d="M29 98l14-46c.536-4 2.87-6 7-6s6.464 2 7 6l14 46H29z"/>
        <circle id="b" cx="50" cy="54" r="26"/>
        <circle id="c" cx="34.5" cy="22.5" r="22.5"/>
        <circle id="d" cx="31.5" cy="22.5" r="22.5"/>
        <circle id="e" cx="28.5" cy="22.5" r="22.5"/>
        <circle id="f" cx="25.5" cy="22.5" r="22.5"/>
        <circle id="g" cx="22.5" cy="22.5" r="22.5"/>
        <circle id="h" cx="34" cy="55" r="28"/>
        <path id="i" d="M0 52L14 6c.536-4 2.87-6 7-6s6.464 2 7 6l14 46H0z"/>
        <circle id="j" cx="21" cy="8" r="2"/>
        <path id="k" d="M92 13.838v9.946H78.104V30L63 18.81 78.104 7v6.838z"/>
    </defs>
    <g fill="none" fill-rule="evenodd">
        <g>
            <use fill="#7E7E7E" xlink:href="#a"/>
            <path stroke="#000" stroke-opacity=".54" d="M29.675 97.5h40.65l-13.82-45.434C56.001 48.316 53.881 46.5 50 46.5c-3.882 0-6.002 1.817-6.522 5.646L29.675 97.5z"/>
        </g>
        <g>
            <use fill="#7E7E7E" xlink:href="#b"/>
            <circle cx="50" cy="54" r="25.509" stroke="#000" stroke-opacity=".54" stroke-width=".982"/>
        </g>
        <path fill="#E1E0CE" d="M51 30.047c12.28.774 22 10.978 22 23.453s-9.72 22.68-22 23.453V77H34v-5.836c-4.904-4.307-8-10.624-8-17.664 0-7.04 3.096-13.357 8-17.664V30h17v.047z"/>
        <g opacity=".548">
            <g transform="translate(14 31)">
                <use fill="#FFF" xlink:href="#c"/>
                <circle cx="34.5" cy="22.5" r="22.021" stroke="#000" stroke-width=".958"/>
            </g>
            <g transform="translate(14 31)">
                <use fill="#FFF" xlink:href="#d"/>
                <circle cx="31.5" cy="22.5" r="22.021" stroke="#000" stroke-width=".958"/>
            </g>
            <g transform="translate(14 31)">
                <use fill="#FFF" xlink:href="#e"/>
                <circle cx="28.5" cy="22.5" r="22.021" stroke="#000" stroke-width=".958"/>
            </g>
            <g transform="translate(14 31)">
                <use fill="#FFF" xlink:href="#f"/>
                <circle cx="25.5" cy="22.5" r="22.021" stroke="#000" stroke-width=".958"/>
            </g>
            <g transform="translate(14 31)">
                <use fill="#FFF" xlink:href="#g"/>
                <circle cx="22.5" cy="22.5" r="22.021" stroke="#000" stroke-width=".958"/>
            </g>
        </g>
        <g>
            <use fill="#9D9D9D" xlink:href="#h"/>
            <circle cx="34" cy="55" r="27.5" stroke="#000" stroke-opacity=".54"/>
        </g>
        <g transform="translate(13 46)">
            <use fill="#9D9D9D" xlink:href="#i"/>
            <path stroke="#000" stroke-opacity=".54" d="M.675 51.5h40.65L27.505 6.066C27.001 2.316 24.881.5 21 .5c-3.882 0-6.002 1.817-6.522 5.646L.675 51.5z"/>
        </g>
        <g transform="translate(13 46)">
            <use fill="#7E7E7E" xlink:href="#j"/>
            <circle cx="21" cy="8" r="1.5" stroke="#000" stroke-opacity=".54"/>
        </g>
        <path stroke="#000" stroke-linecap="round" stroke-opacity=".606" stroke-width="3" d="M52 32l44.5 9.5"/>
        <path stroke="#E1E0CE" stroke-linecap="round" stroke-width="2" d="M52 32l44.5 9.5"/>
        <g transform="matrix(-1 0 0 1 155 0)">
            <use fill="#F1F1E8" xlink:href="#k"/>
            <path stroke="#5B5B5B" d="M91.5 14.338H77.604V8.026L63.825 18.8l13.78 10.207v-5.723H91.5v-8.946z"/>
        </g>
    </g>
</svg>
