<svg xmlns="http://www.w3.org/2000/svg" xmlns:xlink="http://www.w3.org/1999/xlink" width="100" height="100" viewBox="0 0 100 100">
    <defs>
        <path id="a" d="M28 39h20v40H28z"/>
        <filter id="b" width="105%" height="102.5%" x="-2.5%" y="-1.2%" filterUnits="objectBoundingBox">
            <feOffset dx="1" in="SourceAlpha" result="shadowOffsetInner1"/>
            <feComposite in="shadowOffsetInner1" in2="SourceAlpha" k2="-1" k3="1" operator="arithmetic" result="shadowInnerInner1"/>
            <feColorMatrix in="shadowInnerInner1" result="shadowMatrixInner1" values="0 0 0 0 0 0 0 0 0 0 0 0 0 0 0 0 0 0 0.5 0"/>
            <feOffset dx="-1" in="SourceAlpha" result="shadowOffsetInner2"/>
            <feComposite in="shadowOffsetInner2" in2="SourceAlpha" k2="-1" k3="1" operator="arithmetic" result="shadowInnerInner2"/>
            <feColorMatrix in="shadowInnerInner2" result="shadowMatrixInner2" values="0 0 0 0 0 0 0 0 0 0 0 0 0 0 0 0 0 0 0.5 0"/>
            <feMerge>
                <feMergeNode in="shadowMatrixInner1"/>
                <feMergeNode in="shadowMatrixInner2"/>
            </feMerge>
        </filter>
        <path id="c" d="M15 38h46v2H15z"/>
        <filter id="d" width="106.5%" height="250%" x="-3.3%" y="-75%" filterUnits="objectBoundingBox">
            <feGaussianBlur in="SourceAlpha" result="shadowBlurInner1" stdDeviation="1"/>
            <feOffset dy="1" in="shadowBlurInner1" result="shadowOffsetInner1"/>
            <feComposite in="shadowOffsetInner1" in2="SourceAlpha" k2="-1" k3="1" operator="arithmetic" result="shadowInnerInner1"/>
            <feColorMatrix in="shadowInnerInner1" values="0 0 0 0 0 0 0 0 0 0 0 0 0 0 0 0 0 0 0.38 0"/>
        </filter>
        <path id="e" d="M26 9h24v17H26z"/>
        <filter id="f" width="116.7%" height="123.5%" x="-8.3%" y="-11.8%" filterUnits="objectBoundingBox">
            <feGaussianBlur in="SourceAlpha" result="shadowBlurInner1" stdDeviation="1"/>
            <feOffset dy="2" in="shadowBlurInner1" result="shadowOffsetInner1"/>
            <feComposite in="shadowOffsetInner1" in2="SourceAlpha" k2="-1" k3="1" operator="arithmetic" result="shadowInnerInner1"/>
            <feColorMatrix in="shadowInnerInner1" values="0 0 0 0 0 0 0 0 0 0 0 0 0 0 0 0 0 0 0.38 0"/>
        </filter>
        <path id="g" d="M14 0h48v9H14z"/>
        <path id="h" d="M0 30h76v8H0z"/>
        <path id="i" d="M38 13l37 18H1z"/>
        <path id="j" d="M0 12h8v19H0z"/>
        <path id="k" d="M2 8h4v5H2z"/>
        <path id="l" d="M68 12h8v19h-8z"/>
        <path id="m" d="M70 8h4v5h-4z"/>
    </defs>
    <g fill="none" fill-rule="evenodd">
        <g transform="translate(12 18)">
            <use fill="#DADADA" xlink:href="#a"/>
            <use fill="#000" filter="url(#b)" xlink:href="#a"/>
        </g>
        <g transform="translate(12 18)">
            <use fill="#C0B9B3" xlink:href="#c"/>
            <use fill="#000" filter="url(#d)" xlink:href="#c"/>
            <path stroke="#000" stroke-opacity=".5" d="M15.5 38.5v1h45v-1h-45z"/>
        </g>
        <g transform="translate(12 18)">
            <use fill="#595959" xlink:href="#e"/>
            <use fill="#000" filter="url(#f)" xlink:href="#e"/>
            <path stroke="#000" stroke-opacity=".12" d="M26.5 9.5v16h23v-16h-23z"/>
        </g>
        <g transform="translate(12 18)">
            <use fill="#595959" xlink:href="#g"/>
            <path stroke="#000" stroke-opacity=".12" d="M14.5.5h47v8h-47z"/>
        </g>
        <g transform="translate(12 18)">
            <use fill="#E7CF6A" xlink:href="#h"/>
            <path stroke="#000" stroke-opacity=".5" d="M.5 30.5v7h75v-7H.5z"/>
        </g>
        <g transform="translate(12 18)">
            <use fill="#E7CF6A" xlink:href="#i"/>
            <path stroke="#000" stroke-opacity=".5" d="M38 13.556L3.17 30.5h69.66L38 13.556z"/>
        </g>
        <g transform="translate(12 18)">
            <use fill="#E7CF6A" xlink:href="#j"/>
            <path stroke="#000" stroke-opacity=".5" d="M.5 12.5h7v18h-7z"/>
        </g>
        <g transform="translate(12 18)">
            <use fill="#E7CF6A" xlink:href="#k"/>
            <path stroke="#000" stroke-opacity=".5" d="M2.5 8.5h3v4h-3z"/>
        </g>
        <g transform="translate(12 18)">
            <use fill="#E7CF6A" xlink:href="#l"/>
            <path stroke="#000" stroke-opacity=".5" d="M68.5 12.5h7v18h-7z"/>
        </g>
        <g transform="translate(12 18)">
            <use fill="#E7CF6A" xlink:href="#m"/>
            <path stroke="#000" stroke-opacity=".5" d="M70.5 8.5h3v4h-3z"/>
        </g>
    </g>
</svg>
