<svg xmlns="http://www.w3.org/2000/svg" xmlns:xlink="http://www.w3.org/1999/xlink" width="64" height="64" viewBox="0 0 64 64">
    <defs>
        <path id="a" d="M0 0h16v50H0z"/>
        <filter id="b" width="112.5%" height="104%" x="-6.2%" y="-2%" filterUnits="objectBoundingBox">
            <feOffset dx="-2" in="SourceAlpha" result="shadowOffsetInner1"/>
            <feComposite in="shadowOffsetInner1" in2="SourceAlpha" k2="-1" k3="1" operator="arithmetic" result="shadowInnerInner1"/>
            <feColorMatrix in="shadowInnerInner1" values="0 0 0 0 0 0 0 0 0 0 0 0 0 0 0 0 0 0 1 0"/>
        </filter>
        <path id="c" d="M0 0h14v7H0z"/>
        <filter id="d" width="107.1%" height="114.3%" x="-3.6%" y="-7.1%" filterUnits="objectBoundingBox">
            <feOffset dy="-1" in="SourceAlpha" result="shadowOffsetInner1"/>
            <feComposite in="shadowOffsetInner1" in2="SourceAlpha" k2="-1" k3="1" operator="arithmetic" result="shadowInnerInner1"/>
            <feColorMatrix in="shadowInnerInner1" values="0 0 0 0 0 0 0 0 0 0 0 0 0 0 0 0 0 0 0.4 0"/>
        </filter>
        <path id="e" d="M2 1h4v4H2z"/>
        <path id="f" d="M8 1h4v4H8z"/>
        <path id="g" d="M0 0h16v50H0z"/>
        <filter id="h" width="112.5%" height="104%" x="-6.2%" y="-2%" filterUnits="objectBoundingBox">
            <feOffset dx="-2" in="SourceAlpha" result="shadowOffsetInner1"/>
            <feComposite in="shadowOffsetInner1" in2="SourceAlpha" k2="-1" k3="1" operator="arithmetic" result="shadowInnerInner1"/>
            <feColorMatrix in="shadowInnerInner1" values="0 0 0 0 0 0 0 0 0 0 0 0 0 0 0 0 0 0 1 0"/>
        </filter>
        <path id="i" d="M0 0h14v7H0z"/>
        <filter id="j" width="107.1%" height="114.3%" x="-3.6%" y="-7.1%" filterUnits="objectBoundingBox">
            <feOffset dy="-1" in="SourceAlpha" result="shadowOffsetInner1"/>
            <feComposite in="shadowOffsetInner1" in2="SourceAlpha" k2="-1" k3="1" operator="arithmetic" result="shadowInnerInner1"/>
            <feColorMatrix in="shadowInnerInner1" values="0 0 0 0 0 0 0 0 0 0 0 0 0 0 0 0 0 0 0.4 0"/>
        </filter>
        <path id="k" d="M2 1h4v4H2z"/>
        <path id="l" d="M8 1h4v4H8z"/>
        <path id="m" d="M0 0h16v50H0z"/>
        <filter id="n" width="112.5%" height="104%" x="-6.2%" y="-2%" filterUnits="objectBoundingBox">
            <feOffset dx="-2" in="SourceAlpha" result="shadowOffsetInner1"/>
            <feComposite in="shadowOffsetInner1" in2="SourceAlpha" k2="-1" k3="1" operator="arithmetic" result="shadowInnerInner1"/>
            <feColorMatrix in="shadowInnerInner1" values="0 0 0 0 0 0 0 0 0 0 0 0 0 0 0 0 0 0 1 0"/>
        </filter>
        <path id="o" d="M0 0h14v7H0z"/>
        <filter id="p" width="107.1%" height="114.3%" x="-3.6%" y="-7.1%" filterUnits="objectBoundingBox">
            <feOffset dy="-1" in="SourceAlpha" result="shadowOffsetInner1"/>
            <feComposite in="shadowOffsetInner1" in2="SourceAlpha" k2="-1" k3="1" operator="arithmetic" result="shadowInnerInner1"/>
            <feColorMatrix in="shadowInnerInner1" values="0 0 0 0 0 0 0 0 0 0 0 0 0 0 0 0 0 0 0.4 0"/>
        </filter>
        <path id="q" d="M2 1h4v4H2z"/>
        <path id="r" d="M8 1h4v4H8z"/>
        <path id="s" d="M0 0h6v50H0z"/>
        <path id="u" d="M0 0h14v7H0z"/>
        <filter id="v" width="107.1%" height="114.3%" x="-3.6%" y="-7.1%" filterUnits="objectBoundingBox">
            <feOffset dy="-1" in="SourceAlpha" result="shadowOffsetInner1"/>
            <feComposite in="shadowOffsetInner1" in2="SourceAlpha" k2="-1" k3="1" operator="arithmetic" result="shadowInnerInner1"/>
            <feColorMatrix in="shadowInnerInner1" values="0 0 0 0 0 0 0 0 0 0 0 0 0 0 0 0 0 0 0.4 0"/>
        </filter>
        <path id="w" d="M2 1h4v4H2z"/>
        <path id="x" d="M2 2h6v60H2z"/>
        <filter id="y" width="116.7%" height="101.7%" x="-8.3%" y="-.8%" filterUnits="objectBoundingBox">
            <feOffset dx="-1" in="SourceAlpha" result="shadowOffsetInner1"/>
            <feComposite in="shadowOffsetInner1" in2="SourceAlpha" k2="-1" k3="1" operator="arithmetic" result="shadowInnerInner1"/>
            <feColorMatrix in="shadowInnerInner1" values="0 0 0 0 0 0 0 0 0 0 0 0 0 0 0 0 0 0 0.4 0"/>
        </filter>
        <path id="z" d="M59 57h3v5h-3z"/>
        <filter id="A" width="133.3%" x="-16.7%" filterUnits="objectBoundingBox">
            <feOffset dx="-1" in="SourceAlpha" result="shadowOffsetInner1"/>
            <feComposite in="shadowOffsetInner1" in2="SourceAlpha" k2="-1" k3="1" operator="arithmetic" result="shadowInnerInner1"/>
            <feColorMatrix in="shadowInnerInner1" result="shadowMatrixInner1" values="0 0 0 0 0 0 0 0 0 0 0 0 0 0 0 0 0 0 0.4 0"/>
            <feOffset dy="1" in="SourceAlpha" result="shadowOffsetInner2"/>
            <feComposite in="shadowOffsetInner2" in2="SourceAlpha" k2="-1" k3="1" operator="arithmetic" result="shadowInnerInner2"/>
            <feColorMatrix in="shadowInnerInner2" result="shadowMatrixInner2" values="0 0 0 0 0 0 0 0 0 0 0 0 0 0 0 0 0 0 0.4 0"/>
            <feMerge>
                <feMergeNode in="shadowMatrixInner1"/>
                <feMergeNode in="shadowMatrixInner2"/>
            </feMerge>
        </filter>
        <path id="B" d="M59 2h3v6h-3z"/>
        <filter id="C" width="133.3%" height="116.7%" x="-16.7%" y="-8.3%" filterUnits="objectBoundingBox">
            <feOffset dx="-1" in="SourceAlpha" result="shadowOffsetInner1"/>
            <feComposite in="shadowOffsetInner1" in2="SourceAlpha" k2="-1" k3="1" operator="arithmetic" result="shadowInnerInner1"/>
            <feColorMatrix in="shadowInnerInner1" result="shadowMatrixInner1" values="0 0 0 0 0 0 0 0 0 0 0 0 0 0 0 0 0 0 0.4 0"/>
            <feOffset dy="1" in="SourceAlpha" result="shadowOffsetInner2"/>
            <feComposite in="shadowOffsetInner2" in2="SourceAlpha" k2="-1" k3="1" operator="arithmetic" result="shadowInnerInner2"/>
            <feColorMatrix in="shadowInnerInner2" result="shadowMatrixInner2" values="0 0 0 0 0 0 0 0 0 0 0 0 0 0 0 0 0 0 0.4 0"/>
            <feOffset dy="-1" in="SourceAlpha" result="shadowOffsetInner3"/>
            <feComposite in="shadowOffsetInner3" in2="SourceAlpha" k2="-1" k3="1" operator="arithmetic" result="shadowInnerInner3"/>
            <feColorMatrix in="shadowInnerInner3" result="shadowMatrixInner3" values="0 0 0 0 0 0 0 0 0 0 0 0 0 0 0 0 0 0 0.4 0"/>
            <feMerge>
                <feMergeNode in="shadowMatrixInner1"/>
                <feMergeNode in="shadowMatrixInner2"/>
                <feMergeNode in="shadowMatrixInner3"/>
            </feMerge>
        </filter>
        <path id="D" d="M8 57h51v5H8z"/>
        <filter id="E" width="103.9%" height="140%" x="-2%" y="-20%" filterUnits="objectBoundingBox">
            <feOffset dy="2" in="SourceAlpha" result="shadowOffsetInner1"/>
            <feComposite in="shadowOffsetInner1" in2="SourceAlpha" k2="-1" k3="1" operator="arithmetic" result="shadowInnerInner1"/>
            <feColorMatrix in="shadowInnerInner1" result="shadowMatrixInner1" values="0 0 0 0 1 0 0 0 0 1 0 0 0 0 1 0 0 0 0.4 0"/>
            <feOffset dy="1" in="SourceAlpha" result="shadowOffsetInner2"/>
            <feComposite in="shadowOffsetInner2" in2="SourceAlpha" k2="-1" k3="1" operator="arithmetic" result="shadowInnerInner2"/>
            <feColorMatrix in="shadowInnerInner2" result="shadowMatrixInner2" values="0 0 0 0 0 0 0 0 0 0 0 0 0 0 0 0 0 0 0.4 0"/>
            <feMerge>
                <feMergeNode in="shadowMatrixInner1"/>
                <feMergeNode in="shadowMatrixInner2"/>
            </feMerge>
        </filter>
        <path id="F" d="M8 2h51v6H8z"/>
        <filter id="G" width="103.9%" height="133.3%" x="-2%" y="-16.7%" filterUnits="objectBoundingBox">
            <feOffset dy="-2" in="SourceAlpha" result="shadowOffsetInner1"/>
            <feComposite in="shadowOffsetInner1" in2="SourceAlpha" k2="-1" k3="1" operator="arithmetic" result="shadowInnerInner1"/>
            <feColorMatrix in="shadowInnerInner1" result="shadowMatrixInner1" values="0 0 0 0 1 0 0 0 0 1 0 0 0 0 1 0 0 0 0.4 0"/>
            <feOffset dy="-1" in="SourceAlpha" result="shadowOffsetInner2"/>
            <feComposite in="shadowOffsetInner2" in2="SourceAlpha" k2="-1" k3="1" operator="arithmetic" result="shadowInnerInner2"/>
            <feColorMatrix in="shadowInnerInner2" result="shadowMatrixInner2" values="0 0 0 0 0 0 0 0 0 0 0 0 0 0 0 0 0 0 0.56 0"/>
            <feOffset dx="-1" in="SourceAlpha" result="shadowOffsetInner3"/>
            <feComposite in="shadowOffsetInner3" in2="SourceAlpha" k2="-1" k3="1" operator="arithmetic" result="shadowInnerInner3"/>
            <feColorMatrix in="shadowInnerInner3" result="shadowMatrixInner3" values="0 0 0 0 0 0 0 0 0 0 0 0 0 0 0 0 0 0 0.4 0"/>
            <feMerge>
                <feMergeNode in="shadowMatrixInner1"/>
                <feMergeNode in="shadowMatrixInner2"/>
                <feMergeNode in="shadowMatrixInner3"/>
            </feMerge>
        </filter>
    </defs>
    <g fill="none" fill-rule="evenodd">
        <g transform="translate(8 8)">
            <use fill="#EAEAEA" xlink:href="#a"/>
            <use fill="#000" filter="url(#b)" xlink:href="#a"/>
        </g>
        <g transform="translate(8 8)">
            <use fill="#7D7F7A" xlink:href="#c"/>
            <use fill="#000" filter="url(#d)" xlink:href="#c"/>
        </g>
        <g transform="translate(8 8)">
            <use fill="#55B648" xlink:href="#e"/>
            <path stroke="#000" stroke-opacity=".484" d="M2.5 1.5h3v3h-3z"/>
        </g>
        <g transform="translate(8 8)">
            <use fill="#B64848" xlink:href="#f"/>
            <path stroke="#000" stroke-opacity=".484" d="M8.5 1.5h3v3h-3z"/>
        </g>
        <g fill="#000" fill-opacity=".54">
            <path d="M8 17h14v1H8zM8 20h14v1H8zM8 23h14v1H8zM8 26h14v1H8zM8 29h14v1H8zM8 32h14v1H8zM8 35h14v1H8zM8 38h14v1H8zM8 41h14v1H8zM8 44h14v1H8zM8 47h14v1H8zM8 50h14v1H8zM8 53h14v1H8z"/>
        </g>
        <g transform="translate(24 8)">
            <use fill="#EAEAEA" xlink:href="#g"/>
            <use fill="#000" filter="url(#h)" xlink:href="#g"/>
        </g>
        <g transform="translate(24 8)">
            <use fill="#7D7F7A" xlink:href="#i"/>
            <use fill="#000" filter="url(#j)" xlink:href="#i"/>
        </g>
        <g transform="translate(24 8)">
            <use fill="#55B648" xlink:href="#k"/>
            <path stroke="#000" stroke-opacity=".484" d="M2.5 1.5h3v3h-3z"/>
        </g>
        <g transform="translate(24 8)">
            <use fill="#B64848" xlink:href="#l"/>
            <path stroke="#000" stroke-opacity=".484" d="M8.5 1.5h3v3h-3z"/>
        </g>
        <g fill="#000" fill-opacity=".54">
            <path d="M24 17h14v1H24zM24 20h14v1H24zM24 23h14v1H24zM24 26h14v1H24zM24 29h14v1H24zM24 32h14v1H24zM24 35h14v1H24zM24 38h14v1H24zM24 41h14v1H24zM24 44h14v1H24zM24 47h14v1H24zM24 50h14v1H24zM24 53h14v1H24z"/>
        </g>
        <g transform="translate(40 8)">
            <use fill="#EAEAEA" xlink:href="#m"/>
            <use fill="#000" filter="url(#n)" xlink:href="#m"/>
        </g>
        <g transform="translate(40 8)">
            <use fill="#7D7F7A" xlink:href="#o"/>
            <use fill="#000" filter="url(#p)" xlink:href="#o"/>
        </g>
        <g transform="translate(40 8)">
            <use fill="#55B648" xlink:href="#q"/>
            <path stroke="#000" stroke-opacity=".484" d="M2.5 1.5h3v3h-3z"/>
        </g>
        <g transform="translate(40 8)">
            <use fill="#B64848" xlink:href="#r"/>
            <path stroke="#000" stroke-opacity=".484" d="M8.5 1.5h3v3h-3z"/>
        </g>
        <g fill="#000" fill-opacity=".54">
            <path d="M40 17h14v1H40zM40 20h14v1H40zM40 23h14v1H40zM40 26h14v1H40zM40 29h14v1H40zM40 32h14v1H40zM40 35h14v1H40zM40 38h14v1H40zM40 41h14v1H40zM40 44h14v1H40zM40 47h14v1H40zM40 50h14v1H40zM40 53h14v1H40z"/>
        </g>
        <g transform="translate(56 8)">
            <mask id="t" fill="#fff">
                <use xlink:href="#s"/>
            </mask>
            <use fill="#EAEAEA" xlink:href="#s"/>
            <g mask="url(#t)">
                <use fill="#7D7F7A" xlink:href="#u"/>
                <use fill="#000" filter="url(#v)" xlink:href="#u"/>
            </g>
            <g mask="url(#t)">
                <use fill="#55B648" xlink:href="#w"/>
                <path stroke="#000" stroke-opacity=".484" d="M2.5 1.5h3v3h-3z"/>
            </g>
            <g fill="#000" fill-opacity=".54" mask="url(#t)">
                <path d="M0 9h14v1H0zM0 12h14v1H0zM0 15h14v1H0zM0 18h14v1H0zM0 21h14v1H0zM0 24h14v1H0zM0 27h14v1H0zM0 30h14v1H0zM0 33h14v1H0zM0 36h14v1H0zM0 39h14v1H0zM0 42h14v1H0zM0 45h14v1H0z"/>
            </g>
        </g>
        <g>
            <use fill="#7D7F7A" xlink:href="#x"/>
            <use fill="#000" filter="url(#y)" xlink:href="#x"/>
        </g>
        <g transform="matrix(-1 0 0 1 121 0)">
            <use fill="#7D7F7A" xlink:href="#z"/>
            <use fill="#000" filter="url(#A)" xlink:href="#z"/>
        </g>
        <g transform="matrix(-1 0 0 1 121 0)">
            <use fill="#7D7F7A" xlink:href="#B"/>
            <use fill="#000" filter="url(#C)" xlink:href="#B"/>
        </g>
        <path fill="#4B4C49" d="M2 2h5v1H2zM2 7h5v1H2zM2 57h5v1H2zM2 51h5v1H2zM6 3h2v4H6zM2 13h2v4H2zM2 22h3v1H2zM2 61h5v1H2z"/>
        <g>
            <use fill="#B3B3AA" xlink:href="#D"/>
            <use fill="#000" filter="url(#E)" xlink:href="#D"/>
        </g>
        <g>
            <use fill="#B3B3AA" xlink:href="#F"/>
            <use fill="#000" filter="url(#G)" xlink:href="#F"/>
        </g>
    </g>
</svg>
